<?xml version="1.0" encoding="UTF-8" standalone="no"?>
<!-- Created with Inkscape (http://www.inkscape.org/) -->

<svg
   width="113.87025mm"
   height="112.87138mm"
   viewBox="0 0 113.87026 112.87138"
   version="1.1"
   id="svg1"
   xmlns="http://www.w3.org/2000/svg"
   xmlns:svg="http://www.w3.org/2000/svg">
  <defs
     id="defs1" />
  <g
     id="layer1"
     transform="translate(101.63642,-72.598991)">
    <ellipse
       style="fill:#c9decf;stroke-width:0.264583"
       id="path1"
       cx="-44.70129"
       cy="129.03468"
       rx="56.935127"
       ry="56.435692" />
    <g
       id="g1"
       transform="matrix(1.1622025,0,0,1.1622025,-166.70851,-43.470998)">
      <path
         id="path443"
         d="M 65.087497,138.18535 H 113.0004 c 6.10129,0.11973 10.88672,1.37591 14.356,3.76862 3.46929,2.3925 5.23389,6.93872 5.29379,13.638 v 29.87841 h -12.5615 v -28.353 c 0,-4.42641 -0.9422,-6.98362 -2.82628,-7.6715 -1.88422,-0.68781 -4.7105,-0.97191 -8.47901,-0.85231 -0.59821,0.0598 -1.2113,0.0898 -1.83928,0.0898 -0.62812,0 -1.27113,0 -1.92913,0 v 36.787 H 92.274103 v -36.8768 H 77.648996 v 36.87681 H 65.087497 Z"
         style="fill:#231f20;fill-opacity:1;fill-rule:nonzero;stroke:none;stroke-width:0.352778" />
      <path
         id="path446"
         d="m 144.87112,137.61618 h -14.01523 l -0.0249,-12.40321 -12.18593,-0.0312 v -13.7922 h 26.22603 z"
         style="fill:#00652e;fill-opacity:1;fill-rule:evenodd;stroke:none;stroke-width:0.352778" />
    </g>
  </g>
</svg>
