<?xml version="1.0" encoding="UTF-8"?>
<!DOCTYPE svg PUBLIC "-//W3C//DTD SVG 1.1//EN" "http://www.w3.org/Graphics/SVG/1.1/DTD/svg11.dtd">
<!-- Creator: CorelDRAW 2020 (64 Bit) -->
<svg xmlns="http://www.w3.org/2000/svg" xml:space="preserve" width="44.3081mm" height="9.5494mm" version="1.1" style="shape-rendering:geometricPrecision; text-rendering:geometricPrecision; image-rendering:optimizeQuality; fill-rule:evenodd; clip-rule:evenodd"
viewBox="0 0 1343.42 289.54"
 xmlns:xlink="http://www.w3.org/1999/xlink"
 xmlns:xodm="http://www.corel.com/coreldraw/odm/2003">
 <defs>
  <style type="text/css">
   <![CDATA[
    .fil4 {fill:#373435}
    .fil3 {fill:#1E1E1E;fill-rule:nonzero}
    .fil0 {fill:#1F1F1F;fill-rule:nonzero}
    .fil1 {fill:#FDFDFD;fill-rule:nonzero}
    .fil2 {fill:#FEFEFE;fill-rule:nonzero}
   ]]>
  </style>
 </defs>
 <g id="Camada_x0020_1">
  <metadata id="CorelCorpID_0Corel-Layer"/>
  <g id="_2731666415936">
   <path class="fil0" d="M966.7 19.67c-0.2,54.73 -0.2,109.47 0,164.2 53.17,-0.2 106.34,-0.1 159.56,-0.05 -0.1,-10.64 -0.15,-21.24 -0.2,-31.78 -40.76,0.2 -81.47,-0.05 -122.23,0.15 -0.25,-12.06 -0.45,-24.11 -0.71,-36.12 38.95,-2.17 78.14,1.82 116.98,-2.42 -0.2,-10.49 -0.3,-20.98 -0.5,-31.48 -38.74,0.05 -77.49,0.3 -116.23,-0.15 0.05,-10.09 0.1,-20.18 0.2,-30.27 40.66,0.25 81.27,-0.45 121.93,0.45 0.45,-10.85 0.71,-21.69 0.86,-32.49 -53.22,0 -106.44,0.05 -159.66,-0.05z"/>
   <path class="fil0" d="M800.43 19.72c0,10.95 0,21.85 0.05,32.79 31.68,0.71 63.51,-1.16 95.14,0.81 12.21,2.73 13.72,15.69 11,26.03 -4.44,10.74 -17.05,7.77 -26.18,8.47 -26.48,-0.15 -52.92,0.1 -79.35,-0.35 -1.26,32.08 -0.51,64.27 -0.55,96.4 12.01,-0.1 24.06,-0.15 36.07,-0.61 -0.3,-20.83 -0.25,-41.67 -0.2,-62.5 23,-0.25 46.06,0.61 69.06,-0.3 13.16,-0.6 25.78,-8.22 31.17,-20.43 4.74,-14.93 2.73,-31.08 2.73,-46.46 1.11,-18.31 -15.49,-35.26 -33.9,-33.75 -35.01,-0.35 -70.02,0.05 -105.03,-0.1z"/>
   <path class="fil0" d="M649.64 19.93c-21.89,54.73 -44.89,109.01 -67.09,163.65 14.78,0.1 29.56,0.91 44.34,-0.15 5.65,-8.37 8.57,-18.16 12.46,-27.44 26.94,-0.3 53.93,-0.45 80.92,0.2 3.48,9.13 7.06,18.26 10.64,27.44 15.29,0.25 30.67,0.3 46.01,-0.51 -22.95,-54.28 -45.05,-108.91 -67.6,-163.34 -19.88,-0.1 -39.8,-0.15 -59.68,0.15z"/>
   <path class="fil0" d="M386.67 19.77c0.05,54.69 0,109.32 0.05,163.95 15.24,0.15 30.47,0.15 45.76,-0.55 -0.4,-34.45 -0.61,-68.91 0.2,-103.31 24.67,35.06 51.81,68.35 76.42,103.46 15.64,0.5 31.28,0.5 46.91,0.45 0.2,-54.69 0.1,-109.37 0.05,-164.05 -15.08,0 -30.17,0 -45.2,-0.05 -0.86,34 0.35,68 -0.71,101.95 -27.19,-32.28 -50.6,-67.6 -76.93,-100.54 -15.28,-2.93 -31.08,-0.86 -46.56,-1.31z"/>
   <path class="fil0" d="M200.58 19.77c0.05,54.63 0.05,109.26 0,163.9 53.52,0.15 107.04,0.1 160.62,0.05 -0.05,-10.59 -0.2,-21.19 -0.86,-31.73 -40.81,0.25 -81.57,0.1 -122.33,0.1 -0.05,-12.26 0.05,-24.52 0.25,-36.78 38.59,0.2 77.13,0.55 115.67,-0.25 0.3,-10.85 0.4,-21.74 0.5,-32.59 -38.89,-0.75 -77.79,0.35 -116.63,-0.6 0.1,-10.04 0.15,-20.03 0.25,-30.02 41.06,-0.25 82.18,0.2 123.29,-0.25 -0.15,-10.65 -0.25,-21.24 -0.4,-31.83 -53.47,-0.1 -106.94,0 -160.37,0z"/>
   <path class="fil0" d="M19.37 19.77c0.1,54.63 0,109.26 0.05,163.85 12.36,0.1 24.82,0.1 37.23,0.2 0.15,-22.8 0,-45.55 0.25,-68.35 40,-1.06 80.26,2.57 120.06,-2.17 -0.25,-10.39 -0.45,-20.78 -0.75,-31.18 -39.75,0.3 -79.55,-0.05 -119.31,0.2 -0.3,-10.29 0.05,-20.63 1.26,-30.82 40.51,0.55 81.02,0.25 121.53,0.2 0.15,-10.49 0.25,-20.98 0.45,-31.43 -53.58,-1.21 -107.2,-0.25 -160.77,-0.5z"/>
   <path class="fil0" d="M1136.75 17.5c17.36,29.36 39.65,55.39 59.63,82.99 -19.02,28.4 -40.86,54.78 -60.13,83.08 15.79,0.3 31.58,0.35 47.42,-0.3 12.46,-15.79 21.74,-35.46 37.48,-48.02 12.91,15.24 24.11,31.88 35.66,48.13 15.84,0.5 31.68,0.5 47.57,0.15 -19.77,-28.05 -41.52,-54.68 -60.38,-83.33 20.43,-27.24 41.57,-54.03 60.23,-82.48 -15.28,-0.05 -30.82,-1.92 -45.9,0.71 -13.82,16.14 -24.77,34.5 -38.69,50.6 -13.37,-16.85 -24.07,-36.02 -39.2,-51.3 -14.53,-1.16 -29.16,-0.35 -43.69,-0.2z"/>
   <path class="fil0" d="M0.15 0.51c147.55,-0.71 295.11,-0.45 442.66,-0.15 15.39,21.74 31.78,42.78 47.52,64.21 0.71,-21.39 0.45,-42.73 0.45,-64.11 28.25,-0.65 56.45,-0.2 84.7,-0.35 0.55,48.48 -0.76,97.01 0.65,145.49 21.99,-47.52 40.51,-96.65 60.49,-145.08 28.55,-0.71 57.15,-0.25 85.76,-0.3 19.57,46.56 37.08,94.03 58.57,139.78 0.2,-46.56 0.25,-93.07 0,-139.63 42.88,-0.25 85.76,-0.55 128.59,0.05 14.28,-0.2 26.18,8.63 37.18,16.7 0.15,-4.29 0.4,-12.81 0.55,-17.1l244.16 0.71 30.42 32.74 27.84 -32.74 91.26 -0.55 -70.98 99.43 0.2 3.99c23.36,33.95 48.99,66.39 73.25,99.78 -31.78,0.71 -63.61,0.25 -95.44,0.3 -9.08,-12.66 -18.36,-25.17 -27.39,-37.83 -9.94,12.36 -19.17,25.22 -28.6,37.93 -81.67,-0.15 -163.29,-0.05 -244.96,-0.05 -0.05,-26.89 0.05,-53.77 -0.1,-80.66 -25.33,22.6 -60.13,13.52 -90.85,15.84 -0.45,21.59 -0.05,43.23 -0.5,64.87 -117.59,-0.5 -235.28,0.65 -352.82,-0.55 -19.52,-17.76 -32.74,-43.59 -50.7,-63.76 -0.4,21.44 0.25,42.88 -1.31,64.32 -89.84,-0.35 -179.64,0.4 -269.48,-0.4l0.3 -68.25 -105.23 -1.46c-0.2,23.36 -0.15,46.71 -0.05,70.02 -25.43,-0.05 -50.9,0.45 -76.28,-0.4 0.65,-67.6 0.3,-135.19 0.15,-202.74z"/>
   <path class="fil1" d="M1136.75 17.5l43.69 0.2c15.13,15.28 25.83,34.46 39.2,51.3l38.69 -50.6 45.9 -0.71c-18.67,28.45 -39.8,55.24 -60.23,82.48 18.87,28.65 40.61,55.29 60.38,83.33 -15.89,0.35 -31.73,0.35 -47.57,-0.15 -11.55,-16.25 -22.75,-32.89 -35.66,-48.13 -15.74,12.56 -25.02,32.24 -37.48,48.02 -15.84,0.66 -31.63,0.61 -47.42,0.3 19.27,-28.3 41.11,-54.68 60.13,-83.08l-59.63 -82.99zm-487.1 2.42c19.87,-0.3 39.8,-0.25 59.68,-0.15 22.55,54.43 44.64,109.06 67.6,163.34 -15.34,0.81 -30.72,0.76 -46.01,0.51 -3.58,-9.18 -7.16,-18.31 -10.64,-27.44 -26.99,-0.66 -53.98,-0.51 -80.92,-0.2 -3.88,9.28 -6.81,19.07 -12.46,27.44 -14.78,1.06 -29.56,0.25 -44.34,0.15 22.2,-54.63 45.2,-108.91 67.09,-163.65zm4.19 102.51c17.2,0 34.46,0 51.71,-0.25 -8.27,-21.14 -16.75,-42.17 -25.78,-62.96 -9.23,20.84 -17.91,41.87 -25.93,63.21z"/>
   <path class="fil2" d="M966.7 19.67c53.22,0.1 106.44,0.05 159.66,0.05 -0.15,10.8 -0.4,21.64 -0.86,32.49 -40.66,-0.91 -81.27,-0.2 -121.93,-0.45 -0.1,10.09 -0.15,20.18 -0.2,30.27 38.74,0.45 77.49,0.2 116.23,0.15 0.2,10.49 0.3,20.99 0.5,31.48 -38.84,4.24 -78.04,0.25 -116.98,2.42 0.25,12.01 0.45,24.06 0.71,36.12 40.76,-0.2 81.47,0.05 122.23,-0.15 0.05,10.55 0.1,21.14 0.2,31.78 -53.22,-0.05 -106.39,-0.15 -159.56,0.05 -0.2,-54.73 -0.2,-109.47 0,-164.2z"/>
   <path class="fil2" d="M800.43 19.72c35.01,0.15 70.02,-0.25 105.03,0.1 18.41,-1.51 35.01,15.44 33.9,33.75 0,15.38 2.02,31.53 -2.73,46.46 -5.4,12.21 -18.01,19.83 -31.17,20.43 -23,0.91 -46.06,0.05 -69.06,0.3 -0.05,20.84 -0.1,41.67 0.2,62.5 -12.01,0.45 -24.06,0.51 -36.07,0.61 0.05,-32.14 -0.71,-64.32 0.55,-96.4 26.43,0.45 52.87,0.2 79.35,0.35 9.13,-0.7 21.74,2.27 26.18,-8.47 2.73,-10.34 1.21,-23.31 -11,-26.03 -31.63,-1.96 -63.46,-0.1 -95.14,-0.81 -0.05,-10.95 -0.05,-21.84 -0.05,-32.79z"/>
   <path class="fil2" d="M386.67 19.77c15.48,0.45 31.28,-1.61 46.56,1.31 26.33,32.94 49.74,68.25 76.93,100.54 1.06,-33.95 -0.15,-67.95 0.71,-101.95 15.03,0.05 30.12,0.05 45.2,0.05 0.05,54.69 0.15,109.37 -0.05,164.05 -15.64,0.05 -31.28,0.05 -46.91,-0.45 -24.62,-35.11 -51.76,-68.41 -76.42,-103.46 -0.81,34.4 -0.6,68.86 -0.2,103.31 -15.29,0.71 -30.52,0.71 -45.76,0.55 -0.05,-54.63 0,-109.26 -0.05,-163.95z"/>
   <path class="fil2" d="M200.58 19.77c53.42,0 106.89,-0.1 160.37,0 0.15,10.59 0.25,21.19 0.4,31.83 -41.11,0.45 -82.22,0 -123.29,0.25 -0.1,9.99 -0.15,19.97 -0.25,30.02 38.85,0.96 77.74,-0.15 116.63,0.6 -0.1,10.85 -0.2,21.74 -0.5,32.59 -38.54,0.81 -77.08,0.45 -115.67,0.25 -0.2,12.26 -0.3,24.52 -0.25,36.78 40.76,0 81.52,0.15 122.33,-0.1 0.65,10.54 0.81,21.14 0.86,31.73 -53.58,0.05 -107.1,0.1 -160.62,-0.05 0.05,-54.63 0.05,-109.26 0,-163.9z"/>
   <polygon class="fil2" points="19.37,19.77 180.15,20.28 179.69,51.71 56.47,51.96 56.9,82.33 176.21,82.13 176.97,115.83 56.9,115.47 56.65,183.82 19.43,183.62 "/>
   <path class="fil3" d="M653.83 122.43c8.02,-21.34 16.7,-42.37 25.93,-63.21 9.03,20.78 17.5,41.82 25.78,62.96 -17.25,0.25 -34.5,0.25 -51.71,0.25z"/>
   <path class="fil4" d="M-0 276.61l5.46 0 0 -19.14 16.01 0 0 -4.51 -16.01 0 0 -14.06 17.32 0 0 -4.59 -22.78 0 0 42.3zm52.47 -24.35l-16.44 0 0 -13.37 17.39 0 0 -4.59 -22.84 0 0 42.3 23.79 0 0 -4.58 -18.33 0 0 -15.25 16.44 0 0 -4.52zm8.98 24.22c2.76,0.31 6.02,0.51 9.91,0.51 8.22,0 14.75,-2.14 18.7,-6.09 3.96,-3.89 6.09,-9.54 6.09,-16.44 0,-6.84 -2.19,-11.74 -5.96,-15.19 -3.71,-3.45 -9.29,-5.27 -17.13,-5.27 -4.33,0 -8.29,0.38 -11.61,0.88l0 41.61zm5.46 -37.59c1.44,-0.32 3.58,-0.57 6.4,-0.57 11.55,0 17.2,6.34 17.14,16.32 0,11.42 -6.34,17.95 -18.02,17.95 -2.13,0 -4.14,-0.06 -5.52,-0.32l0 -33.39zm58.24 13.37l-16.44 0 0 -13.37 17.39 0 0 -4.59 -22.84 0 0 42.3 23.79 0 0 -4.58 -18.33 0 0 -15.25 16.44 0 0 -4.52zm8.98 24.35l5.46 0 0 -18.33 5.15 0c4.96,0.19 7.22,2.39 8.47,8.22 1.19,5.27 2.13,8.91 2.82,10.11l5.65 0c-0.88,-1.63 -1.89,-5.72 -3.27,-11.61 -1.01,-4.39 -2.95,-7.41 -6.21,-8.54l0 -0.19c4.46,-1.51 7.97,-5.21 7.97,-10.79 0,-3.27 -1.19,-6.15 -3.33,-8.03 -2.63,-2.39 -6.4,-3.46 -12.24,-3.46 -3.76,0 -7.72,0.31 -10.48,0.88l0 41.74zm5.46 -37.91c0.88,-0.25 2.77,-0.5 5.4,-0.5 5.77,0.06 9.73,2.45 9.73,7.91 0,4.84 -3.71,8.03 -9.54,8.03l-5.58 0 0 -15.44zm50.46 24.6l4.52 13.31 5.84 0 -14.44 -42.3 -6.59 0 -14.37 42.3 5.65 0 4.39 -13.31 15 0zm-13.87 -4.27l4.14 -12.23c0.82,-2.58 1.51,-5.15 2.14,-7.66l0.13 0c0.63,2.44 1.25,4.96 2.19,7.72l4.14 12.18 -12.74 0zm57.92 11.86c-2.2,1.07 -5.58,1.76 -8.91,1.76 -10.29,0 -16.25,-6.65 -16.25,-17.01 0,-11.11 6.59,-17.45 16.5,-17.45 3.51,0 6.46,0.75 8.54,1.76l1.32 -4.46c-1.44,-0.75 -4.77,-1.88 -10.04,-1.88 -13.11,0 -22.09,8.97 -22.09,22.22 0,12.61 7.41,19.96 17.76,21.21l-2.63 4.83c2.95,0.31 4.89,1 4.89,2.7 0,1.32 -1.19,1.88 -2.63,1.88 -1.38,0 -2.57,-0.32 -3.51,-0.82l-0.88 2.83c1.06,0.62 2.82,1.06 4.46,1.06 3.26,0 6.46,-1.44 6.46,-5.08 0,-2.57 -2.07,-4.27 -4.39,-4.71l1.44 -2.51c5.14,0 9.1,-1.01 11.11,-2.01l-1.13 -4.34zm30.06 -7.59l4.52 13.31 5.84 0 -14.44 -42.3 -6.59 0 -14.37 42.3 5.65 0 4.39 -13.31 15 0zm-13.87 -4.27l4.14 -12.23c0.82,-2.58 1.51,-5.15 2.14,-7.66l0.13 0c0.63,2.44 1.25,4.96 2.19,7.72l4.14 12.18 -12.74 0zm1.82 -27.3c0.19,-1.69 0.63,-2.76 1.63,-2.76 0.94,0 1.76,0.56 2.95,1.19 1.38,0.69 2.51,1.19 3.83,1.19 2.95,0 4.33,-2.13 4.27,-6.09l-2.95 0c-0.12,2.01 -0.69,2.45 -1.69,2.45 -0.94,0 -1.94,-0.56 -2.95,-1.13 -1.32,-0.69 -2.39,-1.26 -3.77,-1.26 -2.7,0 -4.33,2.57 -4.27,6.4l2.95 0zm44.81 1.89c-11.29,0 -19.64,8.79 -19.64,22.22 0,12.8 7.85,21.46 19.01,21.46 10.8,0 19.64,-7.72 19.64,-22.28 0,-12.56 -7.47,-21.4 -19.02,-21.4zm-0.25 4.45c9.1,0 13.49,8.79 13.49,17.2 0,9.6 -4.89,17.57 -13.56,17.57 -8.6,0 -13.5,-8.1 -13.5,-17.13 0,-9.29 4.52,-17.64 13.56,-17.64zm44.81 38.54l0 -18.07c0,-7.03 -0.12,-12.11 -0.44,-17.45l0.19 -0.06c2.13,4.58 4.96,9.41 7.91,14.12l13.43 21.46 5.52 0 0 -42.3 -5.15 0 0 17.7c0,6.59 0.13,11.74 0.63,17.39l-0.13 0.06c-2.01,-4.33 -4.45,-8.79 -7.59,-13.74l-13.56 -21.4 -5.96 0 0 42.3 5.14 0zm57.99 -13.31l4.52 13.31 5.84 0 -14.44 -42.3 -6.59 0 -14.37 42.3 5.64 0 4.39 -13.31 15 0zm-13.87 -4.27l4.14 -12.23c0.82,-2.58 1.51,-5.15 2.13,-7.66l0.13 0c0.63,2.44 1.25,4.96 2.2,7.72l4.14 12.18 -12.74 0zm57.92 11.86c-2.2,1.07 -5.58,1.76 -8.91,1.76 -10.29,0 -16.25,-6.65 -16.25,-17.01 0,-11.11 6.59,-17.45 16.5,-17.45 3.51,0 6.46,0.75 8.54,1.76l1.32 -4.46c-1.44,-0.75 -4.77,-1.88 -10.05,-1.88 -13.11,0 -22.09,8.97 -22.09,22.22 0,13.87 8.98,21.4 20.9,21.4 5.15,0 9.17,-1.01 11.17,-2.01l-1.13 -4.34zm7.97 -36.59l0 42.3 5.46 0 0 -42.3 -5.46 0zm32.13 -0.69c-11.29,0 -19.64,8.79 -19.64,22.22 0,12.8 7.85,21.46 19.01,21.46 10.8,0 19.64,-7.72 19.64,-22.28 0,-12.56 -7.46,-21.4 -19.02,-21.4zm-0.25 4.45c9.1,0 13.49,8.79 13.49,17.2 0,9.6 -4.89,17.57 -13.56,17.57 -8.6,0 -13.49,-8.1 -13.49,-17.13 0,-9.29 4.52,-17.64 13.56,-17.64zm31.51 38.54l0 -18.07c0,-7.03 -0.12,-12.11 -0.44,-17.45l0.19 -0.06c2.13,4.58 4.96,9.41 7.91,14.12l13.43 21.46 5.52 0 0 -42.3 -5.14 0 0 17.7c0,6.59 0.13,11.74 0.63,17.39l-0.13 0.06c-2.01,-4.33 -4.46,-8.79 -7.59,-13.74l-13.56 -21.4 -5.96 0 0 42.3 5.14 0zm57.99 -13.31l4.52 13.31 5.84 0 -14.44 -42.3 -6.59 0 -14.37 42.3 5.65 0 4.39 -13.31 15 0zm-13.87 -4.27l4.14 -12.23c0.82,-2.58 1.51,-5.15 2.13,-7.66l0.13 0c0.63,2.44 1.25,4.96 2.19,7.72l4.14 12.18 -12.73 0zm30.44 17.57l23.53 0 0 -4.58 -18.07 0 0 -37.72 -5.46 0 0 42.3zm42.93 -0.13c2.76,0.31 6.02,0.51 9.91,0.51 8.22,0 14.75,-2.14 18.7,-6.09 3.96,-3.89 6.09,-9.54 6.09,-16.44 0,-6.84 -2.19,-11.74 -5.96,-15.19 -3.71,-3.45 -9.29,-5.27 -17.14,-5.27 -4.33,0 -8.28,0.38 -11.61,0.88l0 41.61zm5.46 -37.59c1.44,-0.32 3.58,-0.57 6.4,-0.57 11.55,0 17.2,6.34 17.13,16.32 0,11.42 -6.34,17.95 -18.01,17.95 -2.13,0 -4.14,-0.06 -5.52,-0.32l0 -33.39zm57.3 24.41l4.52 13.31 5.84 0 -14.44 -42.3 -6.59 0 -14.37 42.3 5.65 0 4.39 -13.31 15 0zm-13.87 -4.27l4.14 -12.23c0.82,-2.58 1.51,-5.15 2.13,-7.66l0.13 0c0.63,2.44 1.25,4.96 2.19,7.72l4.14 12.18 -12.74 0zm43.74 17.57l5.46 0 0 -16.94c1.26,0.31 2.77,0.37 4.39,0.37 5.34,0 10.04,-1.57 12.93,-4.65 2.13,-2.19 3.27,-5.21 3.27,-9.04 0,-3.77 -1.38,-6.84 -3.7,-8.85 -2.51,-2.26 -6.46,-3.51 -11.86,-3.51 -4.39,0 -7.84,0.38 -10.48,0.82l0 41.8zm5.46 -37.85c0.94,-0.25 2.77,-0.44 5.15,-0.44 6.02,0 9.98,2.7 9.98,8.28 0,5.84 -4.02,9.04 -10.61,9.04 -1.82,0 -3.33,-0.12 -4.52,-0.44l0 -16.45zm27.86 -4.46l0 24.92c0,13.12 6.53,18.08 15.19,18.08 9.17,0 16.01,-5.34 16.01,-18.33l0 -24.67 -5.53 0 0 25.04c0,9.35 -4.01,13.49 -10.29,13.49 -5.65,0 -9.85,-4.01 -9.85,-13.49l0 -25.04 -5.52 0zm40.67 42.18c1.82,0.25 4.71,0.51 8.47,0.51 6.9,0 11.67,-1.26 14.62,-3.96 2.13,-2.07 3.58,-4.83 3.58,-8.47 0,-6.28 -4.71,-9.6 -8.72,-10.61l0 -0.12c4.45,-1.63 7.15,-5.22 7.15,-9.29 0,-3.32 -1.31,-5.84 -3.51,-7.46 -2.63,-2.13 -6.15,-3.08 -11.61,-3.08 -3.83,0 -7.6,0.38 -9.98,0.88l0 41.61zm5.46 -37.9c0.88,-0.19 2.32,-0.38 4.83,-0.38 5.52,0 9.29,1.94 9.29,6.9 0,4.08 -3.39,7.09 -9.16,7.09l-4.96 0 0 -13.62zm0 17.76l4.52 0c5.96,0 10.92,2.39 10.92,8.16 0,6.15 -5.21,8.22 -10.86,8.22 -1.94,0 -3.51,-0.06 -4.58,-0.25l0 -16.13zm28.56 20.27l23.53 0 0 -4.58 -18.07 0 0 -37.72 -5.46 0 0 42.3zm29.62 -42.3l0 42.3 5.46 0 0 -42.3 -5.46 0zm43.43 36.59c-2.2,1.07 -5.58,1.76 -8.91,1.76 -10.29,0 -16.25,-6.65 -16.25,-17.01 0,-11.11 6.59,-17.45 16.5,-17.45 3.52,0 6.47,0.75 8.54,1.76l1.32 -4.46c-1.44,-0.75 -4.77,-1.88 -10.04,-1.88 -13.12,0 -22.09,8.97 -22.09,22.22 0,13.87 8.98,21.4 20.9,21.4 5.14,0 9.16,-1.01 11.17,-2.01l-1.13 -4.34zm7.97 -36.59l0 42.3 5.46 0 0 -42.3 -5.46 0zm15 42.18c2.76,0.31 6.02,0.51 9.91,0.51 8.22,0 14.75,-2.14 18.7,-6.09 3.96,-3.89 6.09,-9.54 6.09,-16.44 0,-6.84 -2.2,-11.74 -5.96,-15.19 -3.71,-3.45 -9.29,-5.27 -17.13,-5.27 -4.33,0 -8.29,0.38 -11.61,0.88l0 41.61zm5.46 -37.59c1.44,-0.32 3.58,-0.57 6.4,-0.57 11.55,0 17.2,6.34 17.14,16.32 0,11.42 -6.34,17.95 -18.01,17.95 -2.13,0 -4.14,-0.06 -5.52,-0.32l0 -33.39zm57.3 24.41l4.52 13.31 5.84 0 -14.44 -42.3 -6.59 0 -14.37 42.3 5.64 0 4.39 -13.31 15 0zm-13.87 -4.27l4.14 -12.23c0.82,-2.58 1.51,-5.15 2.13,-7.66l0.13 0c0.63,2.44 1.25,4.96 2.2,7.72l4.14 12.18 -12.74 0zm30.44 17.45c2.76,0.31 6.02,0.51 9.91,0.51 8.22,0 14.75,-2.14 18.7,-6.09 3.95,-3.89 6.09,-9.54 6.09,-16.44 0,-6.84 -2.2,-11.74 -5.96,-15.19 -3.71,-3.45 -9.29,-5.27 -17.14,-5.27 -4.33,0 -8.28,0.38 -11.61,0.88l0 41.61zm5.46 -37.59c1.44,-0.32 3.58,-0.57 6.4,-0.57 11.55,0 17.2,6.34 17.13,16.32 0,11.42 -6.34,17.95 -18.01,17.95 -2.13,0 -4.14,-0.06 -5.52,-0.32l0 -33.39zm58.24 13.37l-16.45 0 0 -13.37 17.39 0 0 -4.59 -22.84 0 0 42.3 23.79 0 0 -4.58 -18.33 0 0 -15.25 16.45 0 0 -4.52zm44.19 0l-16.44 0 0 -13.37 17.39 0 0 -4.59 -22.85 0 0 42.3 23.79 0 0 -4.58 -18.33 0 0 -15.25 16.44 0 0 -4.52zm38.47 24.35l-13.18 -21.72 12.86 -20.59 -6.27 0 -5.78 9.92c-1.57,2.7 -2.64,4.65 -3.83,7.16l-0.19 0c-1.13,-2.26 -2.32,-4.39 -3.89,-7.16l-5.59 -9.92 -6.34 0 12.43 20.9 -12.93 21.4 6.27 0 5.08 -9.29c2.2,-3.71 3.39,-5.96 4.58,-8.41l0.13 0c1.32,2.45 2.7,4.77 4.89,8.35l5.4 9.35 6.33 0zm14.88 0l5.53 0 0 -37.66 12.92 0 0 -4.65 -31.31 0 0 4.65 12.86 0 0 37.66zm45.06 -24.35l-16.45 0 0 -13.37 17.39 0 0 -4.59 -22.84 0 0 42.3 23.79 0 0 -4.58 -18.33 0 0 -15.25 16.45 0 0 -4.52zm8.97 24.35l5.46 0 0 -18.33 5.15 0c4.96,0.19 7.22,2.39 8.47,8.22 1.19,5.27 2.13,8.91 2.82,10.11l5.65 0c-0.88,-1.63 -1.89,-5.72 -3.26,-11.61 -1.01,-4.39 -2.95,-7.41 -6.22,-8.54l0 -0.19c4.46,-1.51 7.97,-5.21 7.97,-10.79 0,-3.27 -1.19,-6.15 -3.33,-8.03 -2.64,-2.39 -6.4,-3.46 -12.24,-3.46 -3.77,0 -7.72,0.31 -10.48,0.88l0 41.74zm5.46 -37.91c0.88,-0.25 2.76,-0.5 5.4,-0.5 5.77,0.06 9.73,2.45 9.73,7.91 0,4.84 -3.71,8.03 -9.54,8.03l-5.58 0 0 -15.44zm28.31 -4.39l0 42.3 5.46 0 0 -42.3 -5.46 0zm32.13 -0.69c-11.29,0 -19.64,8.79 -19.64,22.22 0,12.8 7.85,21.46 19.02,21.46 10.8,0 19.64,-7.72 19.64,-22.28 0,-12.56 -7.46,-21.4 -19.01,-21.4zm-0.25 4.45c9.1,0 13.49,8.79 13.49,17.2 0,9.6 -4.89,17.57 -13.56,17.57 -8.59,0 -13.49,-8.1 -13.49,-17.13 0,-9.29 4.52,-17.64 13.56,-17.64zm26.36 38.54l5.46 0 0 -18.33 5.15 0c4.96,0.19 7.21,2.39 8.47,8.22 1.19,5.27 2.13,8.91 2.82,10.11l5.65 0c-0.88,-1.63 -1.89,-5.72 -3.27,-11.61 -1.01,-4.39 -2.95,-7.41 -6.21,-8.54l0 -0.19c4.46,-1.51 7.97,-5.21 7.97,-10.79 0,-3.27 -1.19,-6.15 -3.33,-8.03 -2.63,-2.39 -6.4,-3.46 -12.23,-3.46 -3.77,0 -7.72,0.31 -10.48,0.88l0 41.74zm5.46 -37.91c0.88,-0.25 2.77,-0.5 5.4,-0.5 5.77,0.06 9.73,2.45 9.73,7.91 0,4.84 -3.71,8.03 -9.54,8.03l-5.59 0 0 -15.44z"/>
  </g>
 </g>
</svg>
