<?xml version="1.0" encoding="UTF-8"?>
<!DOCTYPE svg PUBLIC "-//W3C//DTD SVG 1.1//EN" "http://www.w3.org/Graphics/SVG/1.1/DTD/svg11.dtd">
<!-- Creator: CorelDRAW 2020 (64 Bit) -->
<svg xmlns="http://www.w3.org/2000/svg" xml:space="preserve" width="40.1785mm" height="11.4675mm" version="1.1" style="shape-rendering:geometricPrecision; text-rendering:geometricPrecision; image-rendering:optimizeQuality; fill-rule:evenodd; clip-rule:evenodd"
viewBox="0 0 1009.52 288.13"
 xmlns:xlink="http://www.w3.org/1999/xlink"
 xmlns:xodm="http://www.corel.com/coreldraw/odm/2003">
 <defs>
  <style type="text/css">
   <![CDATA[
    .fil0 {fill:#373435;fill-rule:nonzero}
    .fil1 {fill:#BF353E;fill-rule:nonzero}
   ]]>
  </style>
 </defs>
 <g id="Camada_x0020_1">
  <metadata id="CorelCorpID_0Corel-Layer"/>
  <g id="_2731665410992">
   <g>
    <path class="fil0" d="M57.18 217.86c-0.06,-1.12 -0.23,-2.21 -0.52,-3.27 -0.29,-1.06 -0.84,-2.09 -1.66,-3.09 -0.81,-1 -2.03,-1.83 -3.65,-2.49 -1.62,-0.66 -3.69,-0.99 -6.21,-0.99 -1.81,0 -3.39,0.26 -4.75,0.77 -1.36,0.52 -2.47,1.23 -3.33,2.13 -0.86,0.9 -1.5,1.93 -1.91,3.07 -0.42,1.15 -0.63,2.33 -0.63,3.57 0,1.26 0.23,2.33 0.69,3.22 0.46,0.89 1.03,1.61 1.72,2.15 0.69,0.54 1.38,0.95 2.08,1.22 0.7,0.27 1.4,0.49 2.08,0.67l6.32 1.46c1.34,0.32 2.43,0.63 3.24,0.92 0.82,0.3 1.47,0.65 1.95,1.05 0.49,0.4 0.84,0.87 1.05,1.42 0.21,0.54 0.32,1.23 0.32,2.06 0,1.03 -0.27,1.9 -0.8,2.6 -0.53,0.7 -1.2,1.24 -2.02,1.61 -0.82,0.37 -1.68,0.63 -2.58,0.78 -0.9,0.14 -1.8,0.21 -2.69,0.21 -1.06,0 -2.09,-0.12 -3.07,-0.36 -0.99,-0.24 -1.9,-0.65 -2.73,-1.2 -0.83,-0.56 -1.49,-1.31 -1.97,-2.26 -0.49,-0.94 -0.73,-2.08 -0.73,-3.39l-3.91 0c0,1.63 0.21,3.07 0.64,4.32 0.43,1.25 1.26,2.41 2.49,3.5 0.46,0.4 0.92,0.76 1.4,1.08 0.47,0.31 1.06,0.62 1.76,0.9 0.7,0.29 1.57,0.52 2.6,0.71 1.03,0.19 2.22,0.28 3.57,0.28 1.46,0 2.89,-0.16 4.28,-0.47 1.39,-0.31 2.68,-0.82 3.87,-1.52 1.19,-0.7 2.14,-1.67 2.86,-2.9 0.72,-1.23 1.08,-2.71 1.08,-4.43 0,-2.32 -0.63,-4.15 -1.89,-5.48 -1.26,-1.33 -2.96,-2.26 -5.11,-2.77l-8.81 -2.02c-1.09,-0.26 -1.97,-0.68 -2.64,-1.27 -0.68,-0.59 -1.01,-1.47 -1.01,-2.64 0,-1.12 0.23,-2.04 0.69,-2.75 0.46,-0.71 1.05,-1.26 1.76,-1.65 0.72,-0.39 1.46,-0.65 2.24,-0.8 0.77,-0.14 1.56,-0.21 2.36,-0.21 0.92,0 1.81,0.11 2.69,0.32 0.87,0.22 1.68,0.57 2.41,1.05 0.73,0.49 1.32,1.14 1.78,1.96 0.46,0.81 0.71,1.79 0.77,2.94l3.91 0zm10.4 -0.64l-3.78 0 0 22.48 3.78 0 0 -22.48zm0 -4.08l0 -4.3 -3.78 0 0 4.3 3.78 0zm24.84 11.26c0,-1.52 -0.23,-2.79 -0.69,-3.82 -0.46,-1.04 -1.07,-1.84 -1.84,-2.43 -0.78,-0.59 -1.61,-0.99 -2.52,-1.22 -0.9,-0.23 -1.84,-0.34 -2.82,-0.34 -0.92,0 -1.75,0.14 -2.49,0.41 -0.74,0.27 -1.4,0.61 -1.95,1.01 -0.56,0.4 -1.02,0.8 -1.37,1.2 -0.36,0.4 -0.68,0.8 -0.97,1.21l-0.08 0 0 -3.18 -3.57 0 0 22.48 3.78 0 0 -12.25c0,-1.43 0.19,-2.64 0.58,-3.64 0.39,-0.98 0.89,-1.76 1.51,-2.32 0.62,-0.56 1.26,-0.95 1.93,-1.18 0.67,-0.23 1.31,-0.34 1.91,-0.34 1.78,0 3.03,0.47 3.74,1.42 0.71,0.95 1.07,2.43 1.07,4.47l0 13.84 3.78 0 0 -15.3zm25.1 -15.56l-3.78 0 0 11.56 -0.09 0 -0.05 -0.04c-0.34,-0.52 -0.67,-0.95 -0.99,-1.31 -0.31,-0.36 -0.73,-0.74 -1.25,-1.14 -0.52,-0.4 -1.15,-0.72 -1.89,-0.97 -0.75,-0.24 -1.59,-0.37 -2.54,-0.37 -2.89,0 -5.18,1.05 -6.85,3.16 -1.67,2.11 -2.51,4.79 -2.51,8.06 0,1.46 0.17,2.92 0.52,4.38 0.34,1.46 0.89,2.8 1.65,4.04 0.76,1.23 1.78,2.23 3.07,2.99 1.29,0.76 2.84,1.14 4.64,1.14 1.29,0 2.49,-0.28 3.61,-0.84 1.12,-0.56 2.05,-1.53 2.79,-2.9l0.08 0 0 3.09 3.57 0 0 -30.86zm-16.03 19.55c0,-0.97 0.06,-1.9 0.17,-2.79 0.12,-0.89 0.37,-1.77 0.77,-2.64 0.4,-0.88 1.03,-1.59 1.87,-2.15 0.85,-0.56 1.95,-0.84 3.33,-0.84 1.29,0 2.34,0.3 3.16,0.9 0.82,0.6 1.43,1.38 1.85,2.34 0.42,0.96 0.69,1.97 0.84,3.03 0.15,1.06 0.22,2.15 0.22,3.27 0,1.4 -0.19,2.61 -0.58,3.61 -0.39,1 -0.89,1.79 -1.5,2.37 -0.62,0.57 -1.28,0.98 -2,1.22 -0.72,0.24 -1.4,0.36 -2.06,0.36 -1.98,0 -3.48,-0.8 -4.51,-2.39 -1.03,-1.59 -1.55,-3.69 -1.55,-6.29zm26 -11.17l-3.78 0 0 22.48 3.78 0 0 -22.48zm0 -4.08l0 -4.3 -3.78 0 0 4.3 3.78 0zm24.24 11.65c-0.09,-1.03 -0.3,-2.04 -0.65,-3.01 -0.34,-0.97 -0.85,-1.86 -1.53,-2.64 -0.67,-0.79 -1.53,-1.41 -2.58,-1.87 -1.05,-0.46 -2.27,-0.69 -3.68,-0.69 -1.8,0 -3.39,0.32 -4.75,0.95 -1.36,0.63 -2.49,1.52 -3.39,2.67 -0.9,1.15 -1.57,2.47 -2,3.97 -0.43,1.51 -0.64,3.15 -0.64,4.92 0,3.32 0.9,6.03 2.7,8.12 1.81,2.09 4.26,3.14 7.35,3.14 1.58,0 2.93,-0.26 4.06,-0.79 1.13,-0.53 2.06,-1.22 2.77,-2.08 0.72,-0.86 1.25,-1.78 1.61,-2.75 0.36,-0.97 0.59,-1.96 0.71,-2.96l-3.65 0c-0.32,1.69 -0.96,3 -1.93,3.93 -0.97,0.93 -2.12,1.39 -3.44,1.39 -1.23,0 -2.26,-0.25 -3.07,-0.75 -0.82,-0.5 -1.45,-1.18 -1.89,-2.02 -0.44,-0.85 -0.75,-1.76 -0.92,-2.75 -0.17,-0.99 -0.26,-2.03 -0.26,-3.12 0,-1.06 0.11,-2.09 0.32,-3.1 0.22,-1 0.57,-1.9 1.05,-2.71 0.49,-0.8 1.13,-1.44 1.93,-1.93 0.8,-0.49 1.76,-0.73 2.88,-0.73 1.55,0 2.76,0.41 3.65,1.25 0.89,0.83 1.45,2.02 1.68,3.57l3.65 0zm7.99 -0.73c0.09,-0.58 0.21,-1.09 0.36,-1.55 0.16,-0.46 0.42,-0.9 0.78,-1.33 0.36,-0.43 0.86,-0.78 1.53,-1.05 0.66,-0.27 1.49,-0.41 2.49,-0.41 3.52,0 5.29,1.22 5.29,3.65 0,1.01 -0.18,1.68 -0.54,2.04 -0.36,0.36 -0.84,0.57 -1.44,0.63l-6.23 0.77c-1.46,0.17 -2.66,0.54 -3.59,1.1 -0.93,0.56 -1.64,1.2 -2.11,1.91 -0.47,0.71 -0.78,1.41 -0.92,2.08 -0.14,0.67 -0.21,1.32 -0.21,1.95 0,1.92 0.66,3.48 1.98,4.69 1.32,1.2 3.01,1.8 5.07,1.8 1.95,0 3.55,-0.34 4.79,-1.03 1.25,-0.69 2.36,-1.56 3.33,-2.62 0.09,1.06 0.39,1.9 0.92,2.52 0.53,0.62 1.55,0.92 3.07,0.92 0.43,0 0.96,-0.1 1.59,-0.3 0.2,-0.06 0.36,-0.1 0.47,-0.13l0 -2.75c-0.58,0.11 -0.99,0.17 -1.25,0.17 -0.83,0 -1.25,-0.45 -1.25,-1.33l0 -12.93c0,-1.35 -0.32,-2.45 -0.97,-3.31 -0.64,-0.86 -1.43,-1.49 -2.36,-1.91 -0.93,-0.41 -1.83,-0.69 -2.71,-0.84 -0.87,-0.14 -1.64,-0.22 -2.3,-0.22 -2.89,0 -5.14,0.6 -6.75,1.78 -1.6,1.19 -2.45,3.09 -2.53,5.7l3.48 0zm10.36 7.86c0,0.75 -0.19,1.44 -0.58,2.08 -0.39,0.65 -0.91,1.2 -1.57,1.68 -0.66,0.47 -1.41,0.84 -2.26,1.12 -0.84,0.27 -1.7,0.41 -2.56,0.41 -1.38,0 -2.4,-0.34 -3.08,-1.01 -0.67,-0.68 -1.01,-1.64 -1.01,-2.9 0,-0.66 0.15,-1.22 0.45,-1.68 0.3,-0.46 0.7,-0.81 1.19,-1.08 0.49,-0.26 0.99,-0.45 1.52,-0.58 0.53,-0.13 1.08,-0.23 1.66,-0.32 2.18,-0.29 3.68,-0.53 4.49,-0.73 0.82,-0.2 1.4,-0.43 1.74,-0.69l0 3.7zm19.29 -11.56l0 -3.14 -3.61 0 0 -6.28 -3.78 0 0 6.28 -3.05 0 0 3.14 3.05 0 0 14.83c0,1.52 0.33,2.7 0.99,3.54 0.66,0.85 1.85,1.27 3.57,1.27 0.14,0 0.52,-0.04 1.12,-0.13 0.83,-0.09 1.4,-0.14 1.72,-0.17l0 -2.96 -1.33 0c-0.63,0 -1.17,-0.1 -1.61,-0.3 -0.44,-0.2 -0.67,-0.69 -0.67,-1.46l0 -14.61 3.61 0zm3.26 8.08c0,1.49 0.22,2.94 0.65,4.34 0.43,1.4 1.07,2.68 1.93,3.83 0.86,1.14 1.96,2.05 3.29,2.7 1.33,0.66 2.86,0.99 4.58,0.99 1.72,0 3.25,-0.33 4.58,-0.99 1.33,-0.66 2.43,-1.56 3.29,-2.7 0.86,-1.15 1.5,-2.42 1.93,-3.83 0.43,-1.4 0.64,-2.85 0.64,-4.34 0,-1.49 -0.22,-2.94 -0.64,-4.36 -0.43,-1.42 -1.08,-2.69 -1.93,-3.83 -0.86,-1.13 -1.95,-2.02 -3.29,-2.68 -1.33,-0.66 -2.86,-0.99 -4.58,-0.99 -1.72,0 -3.24,0.33 -4.58,0.99 -1.33,0.66 -2.43,1.56 -3.29,2.71 -0.86,1.15 -1.51,2.42 -1.93,3.83 -0.43,1.4 -0.65,2.85 -0.65,4.34zm3.91 0c0,-0.86 0.1,-1.78 0.3,-2.75 0.2,-0.97 0.53,-1.9 1.01,-2.8 0.47,-0.89 1.14,-1.62 2,-2.19 0.86,-0.58 1.93,-0.86 3.22,-0.86 1.29,0 2.36,0.28 3.22,0.86 0.86,0.57 1.53,1.3 2.02,2.19 0.49,0.89 0.83,1.82 1.01,2.8 0.19,0.97 0.28,1.89 0.28,2.75 0,0.86 -0.09,1.78 -0.28,2.75 -0.19,0.97 -0.53,1.9 -1.01,2.79 -0.49,0.89 -1.16,1.62 -2.02,2.19 -0.86,0.57 -1.93,0.86 -3.22,0.86 -1.29,0 -2.36,-0.29 -3.22,-0.86 -0.86,-0.57 -1.53,-1.3 -2,-2.19 -0.47,-0.89 -0.81,-1.82 -1.01,-2.79 -0.2,-0.97 -0.3,-1.89 -0.3,-2.75zm51.87 -19.6l-3.78 0 0 11.56 -0.09 0 -0.05 -0.04c-0.34,-0.52 -0.67,-0.95 -0.98,-1.31 -0.32,-0.36 -0.73,-0.74 -1.25,-1.14 -0.52,-0.4 -1.15,-0.72 -1.89,-0.97 -0.75,-0.24 -1.59,-0.37 -2.54,-0.37 -2.89,0 -5.18,1.05 -6.85,3.16 -1.68,2.11 -2.52,4.79 -2.52,8.06 0,1.46 0.17,2.92 0.52,4.38 0.34,1.46 0.89,2.8 1.65,4.04 0.76,1.23 1.78,2.23 3.07,2.99 1.29,0.76 2.84,1.14 4.64,1.14 1.29,0 2.49,-0.28 3.61,-0.84 1.12,-0.56 2.05,-1.53 2.79,-2.9l0.08 0 0 3.09 3.57 0 0 -30.86zm-16.03 19.55c0,-0.97 0.06,-1.9 0.17,-2.79 0.12,-0.89 0.37,-1.77 0.77,-2.64 0.4,-0.88 1.03,-1.59 1.87,-2.15 0.85,-0.56 1.95,-0.84 3.33,-0.84 1.29,0 2.34,0.3 3.16,0.9 0.82,0.6 1.43,1.38 1.85,2.34 0.42,0.96 0.69,1.97 0.84,3.03 0.15,1.06 0.22,2.15 0.22,3.27 0,1.4 -0.19,2.61 -0.58,3.61 -0.39,1 -0.89,1.79 -1.5,2.37 -0.62,0.57 -1.28,0.98 -2,1.22 -0.72,0.24 -1.4,0.36 -2.06,0.36 -1.98,0 -3.48,-0.8 -4.52,-2.39 -1.03,-1.59 -1.55,-3.69 -1.55,-6.29zm25.49 -4.34c0.09,-0.58 0.21,-1.09 0.36,-1.55 0.16,-0.46 0.42,-0.9 0.78,-1.33 0.35,-0.43 0.86,-0.78 1.52,-1.05 0.66,-0.27 1.49,-0.41 2.5,-0.41 3.52,0 5.28,1.22 5.28,3.65 0,1.01 -0.18,1.68 -0.54,2.04 -0.36,0.36 -0.84,0.57 -1.44,0.63l-6.23 0.77c-1.46,0.17 -2.66,0.54 -3.59,1.1 -0.93,0.56 -1.63,1.2 -2.11,1.91 -0.47,0.71 -0.78,1.41 -0.92,2.08 -0.14,0.67 -0.22,1.32 -0.22,1.95 0,1.92 0.66,3.48 1.98,4.69 1.32,1.2 3.01,1.8 5.07,1.8 1.95,0 3.55,-0.34 4.79,-1.03 1.25,-0.69 2.35,-1.56 3.33,-2.62 0.09,1.06 0.39,1.9 0.92,2.52 0.53,0.62 1.55,0.92 3.07,0.92 0.43,0 0.96,-0.1 1.59,-0.3 0.2,-0.06 0.36,-0.1 0.47,-0.13l0 -2.75c-0.58,0.11 -0.99,0.17 -1.25,0.17 -0.83,0 -1.25,-0.45 -1.25,-1.33l0 -12.93c0,-1.35 -0.32,-2.45 -0.97,-3.31 -0.64,-0.86 -1.43,-1.49 -2.36,-1.91 -0.93,-0.41 -1.83,-0.69 -2.71,-0.84 -0.87,-0.14 -1.64,-0.22 -2.3,-0.22 -2.89,0 -5.14,0.6 -6.75,1.78 -1.6,1.19 -2.45,3.09 -2.53,5.7l3.48 0zm10.36 7.86c0,0.75 -0.2,1.44 -0.58,2.08 -0.39,0.65 -0.91,1.2 -1.57,1.68 -0.66,0.47 -1.41,0.84 -2.26,1.12 -0.84,0.27 -1.7,0.41 -2.56,0.41 -1.37,0 -2.4,-0.34 -3.07,-1.01 -0.67,-0.68 -1.01,-1.64 -1.01,-2.9 0,-0.66 0.15,-1.22 0.45,-1.68 0.3,-0.46 0.7,-0.81 1.18,-1.08 0.49,-0.26 0.99,-0.45 1.53,-0.58 0.53,-0.13 1.08,-0.23 1.66,-0.32 2.18,-0.29 3.67,-0.53 4.49,-0.73 0.82,-0.2 1.4,-0.43 1.74,-0.69l0 3.7zm27.46 -8.3c0,-0.49 -0.09,-1.1 -0.28,-1.82 -0.19,-0.73 -0.57,-1.5 -1.14,-2.3 -0.57,-0.8 -1.45,-1.49 -2.62,-2.07 -1.17,-0.57 -2.69,-0.86 -4.56,-0.86 -2.41,0 -4.38,0.58 -5.93,1.72 -0.8,0.63 -1.43,1.4 -1.89,2.3 -0.46,0.9 -0.69,1.96 -0.69,3.16 0,1.48 0.45,2.67 1.35,3.54 0.9,0.87 2.19,1.51 3.85,1.91l4.38 1.07c1.69,0.43 2.86,0.86 3.5,1.29 0.64,0.43 0.96,1.08 0.96,1.93 0,1.18 -0.49,2.06 -1.48,2.67 -0.99,0.6 -2.22,0.9 -3.67,0.9 -1.24,0 -2.25,-0.14 -3.05,-0.43 -0.8,-0.28 -1.41,-0.67 -1.83,-1.14 -0.41,-0.47 -0.69,-0.95 -0.81,-1.42 -0.13,-0.47 -0.22,-1.01 -0.28,-1.61l-3.65 0c0.03,0.91 0.15,1.79 0.37,2.62 0.22,0.83 0.64,1.66 1.29,2.47 0.65,0.81 1.62,1.48 2.92,2 1.3,0.52 3,0.77 5.09,0.77 2.61,0 4.74,-0.67 6.4,-2.02 1.66,-1.35 2.49,-3.15 2.49,-5.41 0,-1.55 -0.47,-2.78 -1.42,-3.7 -0.94,-0.92 -2.58,-1.66 -4.9,-2.24l-3.78 -0.94c-1.6,-0.4 -2.69,-0.79 -3.24,-1.16 -0.56,-0.37 -0.84,-0.98 -0.84,-1.84 0,-0.66 0.17,-1.2 0.49,-1.64 0.33,-0.43 0.74,-0.76 1.23,-0.99 0.48,-0.23 0.97,-0.38 1.46,-0.45 0.49,-0.07 0.92,-0.11 1.29,-0.11 1.12,0 2.04,0.12 2.77,0.36 0.73,0.24 1.27,0.56 1.63,0.94 0.36,0.39 0.6,0.78 0.71,1.18 0.12,0.4 0.19,0.83 0.22,1.29l3.65 0zm40.7 12.38l-18.61 0 0 -10.31 16.89 0 0 -3.7 -16.89 0 0 -9.45 18.31 0 0 -3.7 -22.48 0 0 30.86 22.78 0 0 -3.7zm5.84 3.7l3.78 0 0 -12.25c0,-1.43 0.19,-2.64 0.58,-3.64 0.39,-0.98 0.89,-1.76 1.51,-2.32 0.62,-0.56 1.26,-0.95 1.93,-1.18 0.67,-0.23 1.31,-0.34 1.91,-0.34 1.26,0 2.16,0.41 2.71,1.22 0.54,0.82 0.81,1.8 0.81,2.94l0 15.56 3.78 0 0 -13.71c0,-1.58 0.5,-2.97 1.5,-4.19 1,-1.22 2.26,-1.83 3.78,-1.83 1.52,0 2.59,0.45 3.22,1.35 0.63,0.9 0.94,2.19 0.94,3.85l0 14.53 3.78 0 0 -15.56c0,-1.49 -0.23,-2.73 -0.69,-3.74 -0.45,-1 -1.05,-1.78 -1.78,-2.34 -0.73,-0.56 -1.48,-0.95 -2.25,-1.16 -0.77,-0.21 -1.52,-0.32 -2.23,-0.32 -1.58,0 -2.83,0.29 -3.76,0.86 -0.93,0.58 -1.97,1.51 -3.12,2.8l0 -0.04c-0.23,-0.43 -0.48,-0.83 -0.75,-1.2 -0.27,-0.37 -0.63,-0.75 -1.07,-1.12 -0.44,-0.37 -1.01,-0.68 -1.7,-0.92 -0.69,-0.24 -1.51,-0.37 -2.45,-0.37 -0.95,0 -1.8,0.14 -2.56,0.41 -0.76,0.27 -1.41,0.6 -1.95,0.99 -0.54,0.39 -0.98,0.78 -1.31,1.18 -0.33,0.4 -0.65,0.82 -0.97,1.25l-0.08 0 0 -3.18 -3.57 0 0 22.48zm39.97 -10.19c0,-1.12 0.07,-2.2 0.21,-3.25 0.15,-1.04 0.42,-2.06 0.84,-3.03 0.41,-0.97 1.03,-1.76 1.85,-2.36 0.81,-0.6 1.87,-0.9 3.16,-0.9 1.37,0 2.49,0.28 3.33,0.84 0.85,0.56 1.47,1.27 1.87,2.15 0.4,0.87 0.66,1.75 0.77,2.64 0.12,0.89 0.17,1.82 0.17,2.79 0,2.61 -0.52,4.71 -1.55,6.29 -1.03,1.59 -2.54,2.39 -4.52,2.39 -0.66,0 -1.34,-0.12 -2.04,-0.36 -0.7,-0.24 -1.37,-0.66 -2,-1.25 -0.63,-0.59 -1.14,-1.37 -1.53,-2.36 -0.39,-0.99 -0.58,-2.19 -0.58,-3.59zm-3.61 19.08l3.78 0 0 -11.26 0.09 0c0.54,0.86 1.32,1.58 2.34,2.15 1.02,0.58 2.23,0.86 3.63,0.86 1.83,0 3.4,-0.38 4.68,-1.14 1.29,-0.76 2.31,-1.76 3.08,-2.99 0.76,-1.23 1.3,-2.58 1.63,-4.04 0.33,-1.46 0.49,-2.92 0.49,-4.38 0,-3.27 -0.83,-5.95 -2.49,-8.06 -1.66,-2.11 -3.95,-3.16 -6.88,-3.16 -0.94,0 -1.78,0.12 -2.51,0.37 -0.73,0.24 -1.36,0.57 -1.89,0.97 -0.53,0.4 -0.96,0.79 -1.29,1.18 -0.33,0.39 -0.65,0.81 -0.96,1.27l-0.05 0.04 -0.08 0 0 -3.18 -3.57 0 0 31.37zm29.35 -21.96c0,-1.69 0.53,-3.12 1.59,-4.28 1.06,-1.16 2.45,-1.74 4.17,-1.74l1.42 0 0 -3.91c-0.29,-0.09 -0.62,-0.13 -0.99,-0.13 -1.34,0 -2.54,0.38 -3.57,1.14 -1.03,0.76 -1.95,1.84 -2.75,3.24l-0.09 0 0 -3.74 -3.57 0 0 22.48 3.78 0 0 -13.07zm26.17 6.02c-0.08,0.97 -0.62,1.92 -1.59,2.84 -0.54,0.49 -1.16,0.87 -1.87,1.16 -0.7,0.29 -1.48,0.43 -2.34,0.43 -2.15,0 -3.77,-0.64 -4.88,-1.91 -1.1,-1.27 -1.66,-3.1 -1.66,-5.48l16.42 0c0,-4.1 -0.81,-7.31 -2.45,-9.63 -1.64,-2.32 -4.04,-3.48 -7.22,-3.48 -1.81,0 -3.39,0.32 -4.75,0.95 -1.36,0.63 -2.49,1.52 -3.4,2.67 -0.9,1.15 -1.57,2.47 -2,3.97 -0.43,1.51 -0.65,3.15 -0.65,4.92 0,3.32 0.9,6.03 2.71,8.12 1.8,2.09 4.25,3.14 7.35,3.14 1.61,0 2.84,-0.14 3.72,-0.43 0.87,-0.29 1.67,-0.66 2.38,-1.12 0.66,-0.43 1.24,-0.94 1.74,-1.52 0.5,-0.59 0.92,-1.21 1.27,-1.87 0.58,-1.03 0.9,-1.95 0.99,-2.75l-3.78 0zm-12.33 -5.97c0,-0.86 0.16,-1.7 0.47,-2.52 0.31,-0.81 0.76,-1.54 1.33,-2.17 0.57,-0.63 1.25,-1.12 2.02,-1.48 0.77,-0.36 1.58,-0.54 2.41,-0.54 1.12,0 2.07,0.18 2.86,0.54 0.79,0.36 1.42,0.84 1.89,1.46 0.47,0.62 0.83,1.32 1.08,2.11 0.24,0.79 0.39,1.65 0.45,2.6l-12.51 0zm38.21 -3.05c0,-0.49 -0.1,-1.1 -0.28,-1.82 -0.19,-0.73 -0.57,-1.5 -1.14,-2.3 -0.57,-0.8 -1.44,-1.49 -2.62,-2.07 -1.17,-0.57 -2.69,-0.86 -4.56,-0.86 -2.41,0 -4.38,0.58 -5.93,1.72 -0.8,0.63 -1.43,1.4 -1.89,2.3 -0.46,0.9 -0.69,1.96 -0.69,3.16 0,1.48 0.45,2.67 1.35,3.54 0.9,0.87 2.19,1.51 3.85,1.91l4.38 1.07c1.69,0.43 2.85,0.86 3.5,1.29 0.64,0.43 0.96,1.08 0.96,1.93 0,1.18 -0.49,2.06 -1.48,2.67 -0.99,0.6 -2.22,0.9 -3.68,0.9 -1.23,0 -2.25,-0.14 -3.05,-0.43 -0.8,-0.28 -1.41,-0.67 -1.83,-1.14 -0.41,-0.47 -0.69,-0.95 -0.81,-1.42 -0.13,-0.47 -0.22,-1.01 -0.28,-1.61l-3.65 0c0.03,0.91 0.15,1.79 0.37,2.62 0.22,0.83 0.64,1.66 1.29,2.47 0.64,0.81 1.62,1.48 2.92,2 1.3,0.52 3,0.77 5.09,0.77 2.61,0 4.74,-0.67 6.4,-2.02 1.66,-1.35 2.49,-3.15 2.49,-5.41 0,-1.55 -0.47,-2.78 -1.42,-3.7 -0.95,-0.92 -2.58,-1.66 -4.9,-2.24l-3.78 -0.94c-1.6,-0.4 -2.69,-0.79 -3.24,-1.16 -0.56,-0.37 -0.84,-0.98 -0.84,-1.84 0,-0.66 0.17,-1.2 0.49,-1.64 0.33,-0.43 0.74,-0.76 1.23,-0.99 0.48,-0.23 0.97,-0.38 1.46,-0.45 0.48,-0.07 0.92,-0.11 1.29,-0.11 1.12,0 2.04,0.12 2.77,0.36 0.73,0.24 1.27,0.56 1.63,0.94 0.36,0.39 0.59,0.78 0.71,1.18 0.12,0.4 0.19,0.83 0.22,1.29l3.65 0zm9.28 0.43c0.09,-0.58 0.21,-1.09 0.36,-1.55 0.16,-0.46 0.42,-0.9 0.78,-1.33 0.36,-0.43 0.86,-0.78 1.53,-1.05 0.66,-0.27 1.49,-0.41 2.49,-0.41 3.52,0 5.29,1.22 5.29,3.65 0,1.01 -0.18,1.68 -0.54,2.04 -0.36,0.36 -0.84,0.57 -1.44,0.63l-6.23 0.77c-1.46,0.17 -2.66,0.54 -3.59,1.1 -0.93,0.56 -1.64,1.2 -2.11,1.91 -0.47,0.71 -0.78,1.41 -0.92,2.08 -0.14,0.67 -0.21,1.32 -0.21,1.95 0,1.92 0.66,3.48 1.98,4.69 1.32,1.2 3.01,1.8 5.07,1.8 1.95,0 3.55,-0.34 4.79,-1.03 1.25,-0.69 2.36,-1.56 3.33,-2.62 0.09,1.06 0.39,1.9 0.92,2.52 0.53,0.62 1.55,0.92 3.07,0.92 0.43,0 0.96,-0.1 1.59,-0.3 0.2,-0.06 0.36,-0.1 0.47,-0.13l0 -2.75c-0.58,0.11 -0.99,0.17 -1.25,0.17 -0.83,0 -1.25,-0.45 -1.25,-1.33l0 -12.93c0,-1.35 -0.32,-2.45 -0.97,-3.31 -0.64,-0.86 -1.43,-1.49 -2.36,-1.91 -0.93,-0.41 -1.83,-0.69 -2.71,-0.84 -0.87,-0.14 -1.64,-0.22 -2.3,-0.22 -2.89,0 -5.14,0.6 -6.75,1.78 -1.6,1.19 -2.45,3.09 -2.53,5.7l3.48 0zm10.36 7.86c0,0.75 -0.19,1.44 -0.58,2.08 -0.39,0.65 -0.91,1.2 -1.57,1.68 -0.66,0.47 -1.41,0.84 -2.26,1.12 -0.84,0.27 -1.7,0.41 -2.56,0.41 -1.37,0 -2.4,-0.34 -3.07,-1.01 -0.67,-0.68 -1.01,-1.64 -1.01,-2.9 0,-0.66 0.15,-1.22 0.45,-1.68 0.3,-0.46 0.7,-0.81 1.19,-1.08 0.49,-0.26 0.99,-0.45 1.52,-0.58 0.53,-0.13 1.08,-0.23 1.66,-0.32 2.18,-0.29 3.68,-0.53 4.49,-0.73 0.82,-0.2 1.4,-0.43 1.74,-0.69l0 3.7zm27.46 -8.3c0,-0.49 -0.09,-1.1 -0.28,-1.82 -0.19,-0.73 -0.57,-1.5 -1.14,-2.3 -0.57,-0.8 -1.45,-1.49 -2.62,-2.07 -1.18,-0.57 -2.69,-0.86 -4.56,-0.86 -2.41,0 -4.38,0.58 -5.93,1.72 -0.8,0.63 -1.43,1.4 -1.89,2.3 -0.46,0.9 -0.69,1.96 -0.69,3.16 0,1.48 0.45,2.67 1.35,3.54 0.9,0.87 2.19,1.51 3.85,1.91l4.38 1.07c1.69,0.43 2.86,0.86 3.5,1.29 0.64,0.43 0.96,1.08 0.96,1.93 0,1.18 -0.49,2.06 -1.48,2.67 -0.99,0.6 -2.21,0.9 -3.67,0.9 -1.23,0 -2.25,-0.14 -3.05,-0.43 -0.8,-0.28 -1.41,-0.67 -1.83,-1.14 -0.42,-0.47 -0.69,-0.95 -0.82,-1.42 -0.13,-0.47 -0.22,-1.01 -0.28,-1.61l-3.65 0c0.03,0.91 0.15,1.79 0.36,2.62 0.22,0.83 0.64,1.66 1.29,2.47 0.64,0.81 1.62,1.48 2.92,2 1.3,0.52 3,0.77 5.09,0.77 2.61,0 4.74,-0.67 6.4,-2.02 1.66,-1.35 2.49,-3.15 2.49,-5.41 0,-1.55 -0.47,-2.78 -1.42,-3.7 -0.95,-0.92 -2.58,-1.66 -4.9,-2.24l-3.78 -0.94c-1.6,-0.4 -2.69,-0.79 -3.24,-1.16 -0.56,-0.37 -0.84,-0.98 -0.84,-1.84 0,-0.66 0.17,-1.2 0.49,-1.64 0.33,-0.43 0.74,-0.76 1.23,-0.99 0.48,-0.23 0.97,-0.38 1.46,-0.45 0.49,-0.07 0.92,-0.11 1.29,-0.11 1.12,0 2.04,0.12 2.77,0.36 0.73,0.24 1.28,0.56 1.64,0.94 0.36,0.39 0.59,0.78 0.71,1.18 0.12,0.4 0.19,0.83 0.22,1.29l3.65 0z"/>
    <path class="fil0" d="M542.74 208.83l-3.78 0 0 11.56 -0.09 0 -0.05 -0.04c-0.34,-0.52 -0.67,-0.95 -0.99,-1.31 -0.31,-0.36 -0.73,-0.74 -1.25,-1.14 -0.52,-0.4 -1.15,-0.72 -1.89,-0.97 -0.75,-0.24 -1.59,-0.37 -2.54,-0.37 -2.89,0 -5.18,1.05 -6.85,3.16 -1.67,2.11 -2.51,4.79 -2.51,8.06 0,1.46 0.17,2.92 0.52,4.38 0.34,1.46 0.89,2.8 1.65,4.04 0.76,1.23 1.78,2.23 3.07,2.99 1.29,0.76 2.84,1.14 4.64,1.14 1.29,0 2.49,-0.28 3.61,-0.84 1.12,-0.56 2.05,-1.53 2.79,-2.9l0.08 0 0 3.09 3.57 0 0 -30.86zm-16.03 19.55c0,-0.97 0.06,-1.9 0.17,-2.79 0.12,-0.89 0.37,-1.77 0.77,-2.64 0.4,-0.88 1.03,-1.59 1.87,-2.15 0.84,-0.56 1.95,-0.84 3.33,-0.84 1.29,0 2.34,0.3 3.16,0.9 0.82,0.6 1.43,1.38 1.85,2.34 0.42,0.96 0.69,1.97 0.84,3.03 0.15,1.06 0.22,2.15 0.22,3.27 0,1.4 -0.19,2.61 -0.58,3.61 -0.39,1 -0.89,1.79 -1.5,2.37 -0.62,0.57 -1.28,0.98 -2,1.22 -0.72,0.24 -1.4,0.36 -2.06,0.36 -1.98,0 -3.48,-0.8 -4.51,-2.39 -1.03,-1.59 -1.55,-3.69 -1.55,-6.29zm37.43 4.26c-0.08,0.97 -0.62,1.92 -1.59,2.84 -0.54,0.49 -1.16,0.87 -1.87,1.16 -0.7,0.29 -1.48,0.43 -2.34,0.43 -2.15,0 -3.77,-0.64 -4.88,-1.91 -1.1,-1.27 -1.66,-3.1 -1.66,-5.48l16.42 0c0,-4.1 -0.81,-7.31 -2.45,-9.63 -1.64,-2.32 -4.04,-3.48 -7.22,-3.48 -1.81,0 -3.39,0.32 -4.75,0.95 -1.36,0.63 -2.49,1.52 -3.39,2.67 -0.9,1.15 -1.57,2.47 -2,3.97 -0.43,1.51 -0.65,3.15 -0.65,4.92 0,3.32 0.9,6.03 2.71,8.12 1.8,2.09 4.25,3.14 7.35,3.14 1.61,0 2.84,-0.14 3.72,-0.43 0.87,-0.29 1.67,-0.66 2.38,-1.12 0.66,-0.43 1.24,-0.94 1.74,-1.52 0.5,-0.59 0.92,-1.21 1.27,-1.87 0.58,-1.03 0.9,-1.95 0.99,-2.75l-3.78 0zm-12.33 -5.97c0,-0.86 0.16,-1.7 0.47,-2.52 0.31,-0.81 0.76,-1.54 1.33,-2.17 0.57,-0.63 1.25,-1.12 2.02,-1.48 0.77,-0.36 1.57,-0.54 2.4,-0.54 1.12,0 2.07,0.18 2.86,0.54 0.79,0.36 1.42,0.84 1.89,1.46 0.47,0.62 0.83,1.32 1.08,2.11 0.24,0.79 0.39,1.65 0.45,2.6l-12.51 0zm37.95 -14.27l8.46 0c1.89,0 3.38,0.4 4.47,1.2 1.09,0.8 1.63,2.12 1.63,3.95 0,1.97 -0.55,3.39 -1.63,4.26 -1.09,0.86 -2.64,1.29 -4.64,1.29l-8.29 0 0 -10.7zm0 14.27l9.71 0c1.61,0 3,-0.27 4.17,-0.8 1.18,-0.53 2.13,-1.23 2.86,-2.11 0.73,-0.87 1.27,-1.85 1.61,-2.92 0.34,-1.07 0.52,-2.18 0.52,-3.33 0,-2.55 -0.82,-4.63 -2.47,-6.25 -1.65,-1.62 -3.87,-2.43 -6.68,-2.43l-13.88 0 0 30.86 4.17 0 0 -13.02zm42.68 13.02l0 -22.48 -3.78 0 0 12.37c0,0.89 -0.11,1.76 -0.32,2.62 -0.22,0.86 -0.56,1.66 -1.03,2.41 -0.47,0.74 -1.11,1.34 -1.91,1.78 -0.8,0.44 -1.78,0.66 -2.92,0.66 -1.35,0 -2.41,-0.39 -3.18,-1.16 -0.77,-0.77 -1.16,-2.04 -1.16,-3.78l0 -14.91 -3.78 0 0 16.16c0,1.29 0.22,2.38 0.65,3.29 0.43,0.9 1,1.63 1.72,2.17 0.72,0.54 1.5,0.93 2.34,1.16 0.84,0.23 1.71,0.34 2.6,0.34 1.75,0 3.17,-0.32 4.26,-0.96 1.09,-0.65 2.05,-1.66 2.88,-3.03l0.09 0.09 0 3.27 3.57 0zm9.8 0l0 -2.79 0.08 0c0.26,0.4 0.54,0.79 0.84,1.16 0.3,0.37 0.7,0.73 1.18,1.08 0.49,0.34 1.08,0.63 1.78,0.86 0.7,0.23 1.49,0.34 2.38,0.34 1.83,0 3.39,-0.38 4.68,-1.14 1.29,-0.76 2.32,-1.76 3.08,-2.99 0.76,-1.23 1.3,-2.58 1.63,-4.04 0.33,-1.46 0.49,-2.92 0.49,-4.38 0,-3.27 -0.83,-5.95 -2.5,-8.06 -1.66,-2.11 -3.95,-3.16 -6.87,-3.16 -2.75,0.06 -4.91,1.22 -6.49,3.48l-0.09 0 0 -11.22 -3.78 0 0 30.86 3.57 0zm12.25 -11.3c0,2.61 -0.52,4.71 -1.55,6.29 -1.03,1.59 -2.54,2.39 -4.51,2.39 -0.66,0 -1.34,-0.12 -2.04,-0.36 -0.7,-0.24 -1.37,-0.66 -2,-1.25 -0.63,-0.59 -1.14,-1.37 -1.53,-2.36 -0.39,-0.99 -0.58,-2.19 -0.58,-3.59 0,-1.12 0.07,-2.2 0.22,-3.25 0.14,-1.04 0.42,-2.06 0.84,-3.03 0.41,-0.97 1.04,-1.76 1.85,-2.36 0.82,-0.6 1.87,-0.9 3.16,-0.9 1.37,0 2.49,0.28 3.33,0.84 0.85,0.56 1.47,1.27 1.87,2.15 0.4,0.87 0.66,1.75 0.78,2.64 0.12,0.89 0.17,1.82 0.17,2.79zm12.25 -19.55l-3.78 0 0 30.86 3.78 0 0 -30.86zm10.4 8.38l-3.78 0 0 22.48 3.78 0 0 -22.48zm0 -4.08l0 -4.3 -3.78 0 0 4.3 3.78 0zm24.24 11.65c-0.09,-1.03 -0.3,-2.04 -0.65,-3.01 -0.34,-0.97 -0.85,-1.86 -1.52,-2.64 -0.68,-0.79 -1.54,-1.41 -2.58,-1.87 -1.05,-0.46 -2.27,-0.69 -3.68,-0.69 -1.8,0 -3.38,0.32 -4.75,0.95 -1.36,0.63 -2.49,1.52 -3.39,2.67 -0.9,1.15 -1.57,2.47 -2,3.97 -0.43,1.51 -0.64,3.15 -0.64,4.92 0,3.32 0.9,6.03 2.71,8.12 1.81,2.09 4.25,3.14 7.35,3.14 1.57,0 2.93,-0.26 4.06,-0.79 1.13,-0.53 2.06,-1.22 2.77,-2.08 0.72,-0.86 1.25,-1.78 1.61,-2.75 0.35,-0.97 0.59,-1.96 0.71,-2.96l-3.66 0c-0.32,1.69 -0.96,3 -1.93,3.93 -0.97,0.93 -2.12,1.39 -3.43,1.39 -1.23,0 -2.26,-0.25 -3.08,-0.75 -0.81,-0.5 -1.45,-1.18 -1.89,-2.02 -0.44,-0.85 -0.75,-1.76 -0.92,-2.75 -0.17,-0.99 -0.26,-2.03 -0.26,-3.12 0,-1.06 0.11,-2.09 0.32,-3.1 0.22,-1 0.57,-1.9 1.05,-2.71 0.49,-0.8 1.13,-1.44 1.93,-1.93 0.8,-0.49 1.76,-0.73 2.88,-0.73 1.55,0 2.76,0.41 3.65,1.25 0.89,0.83 1.44,2.02 1.67,3.57l3.66 0zm8.51 -7.56l-3.78 0 0 22.48 3.78 0 0 -22.48zm0 -4.08l0 -4.3 -3.78 0 0 4.3 3.78 0zm25.18 -4.3l-3.78 0 0 11.56 -0.09 0 -0.04 -0.04c-0.34,-0.52 -0.67,-0.95 -0.99,-1.31 -0.32,-0.36 -0.73,-0.74 -1.25,-1.14 -0.52,-0.4 -1.15,-0.72 -1.89,-0.97 -0.75,-0.24 -1.59,-0.37 -2.54,-0.37 -2.89,0 -5.18,1.05 -6.85,3.16 -1.67,2.11 -2.52,4.79 -2.52,8.06 0,1.46 0.17,2.92 0.52,4.38 0.34,1.46 0.89,2.8 1.65,4.04 0.76,1.23 1.78,2.23 3.08,2.99 1.29,0.76 2.84,1.14 4.64,1.14 1.29,0 2.49,-0.28 3.61,-0.84 1.11,-0.56 2.05,-1.53 2.79,-2.9l0.09 0 0 3.09 3.57 0 0 -30.86zm-16.03 19.55c0,-0.97 0.06,-1.9 0.17,-2.79 0.12,-0.89 0.37,-1.77 0.78,-2.64 0.4,-0.88 1.02,-1.59 1.87,-2.15 0.85,-0.56 1.95,-0.84 3.33,-0.84 1.29,0 2.34,0.3 3.16,0.9 0.82,0.6 1.43,1.38 1.85,2.34 0.41,0.96 0.69,1.97 0.84,3.03 0.14,1.06 0.22,2.15 0.22,3.27 0,1.4 -0.19,2.61 -0.58,3.61 -0.39,1 -0.89,1.79 -1.5,2.37 -0.62,0.57 -1.28,0.98 -2,1.22 -0.72,0.24 -1.4,0.36 -2.06,0.36 -1.98,0 -3.48,-0.8 -4.52,-2.39 -1.03,-1.59 -1.55,-3.69 -1.55,-6.29zm25.48 -4.34c0.09,-0.58 0.21,-1.09 0.37,-1.55 0.16,-0.46 0.41,-0.9 0.77,-1.33 0.36,-0.43 0.86,-0.78 1.53,-1.05 0.66,-0.27 1.49,-0.41 2.49,-0.41 3.53,0 5.29,1.22 5.29,3.65 0,1.01 -0.18,1.68 -0.54,2.04 -0.36,0.36 -0.84,0.57 -1.44,0.63l-6.23 0.77c-1.46,0.17 -2.66,0.54 -3.59,1.1 -0.93,0.56 -1.64,1.2 -2.11,1.91 -0.47,0.71 -0.78,1.41 -0.92,2.08 -0.15,0.67 -0.22,1.32 -0.22,1.95 0,1.92 0.66,3.48 1.98,4.69 1.32,1.2 3.01,1.8 5.07,1.8 1.95,0 3.55,-0.34 4.79,-1.03 1.25,-0.69 2.36,-1.56 3.33,-2.62 0.09,1.06 0.39,1.9 0.92,2.52 0.53,0.62 1.55,0.92 3.07,0.92 0.43,0 0.96,-0.1 1.59,-0.3 0.2,-0.06 0.36,-0.1 0.47,-0.13l0 -2.75c-0.58,0.11 -0.99,0.17 -1.25,0.17 -0.83,0 -1.25,-0.45 -1.25,-1.33l0 -12.93c0,-1.35 -0.32,-2.45 -0.97,-3.31 -0.64,-0.86 -1.43,-1.49 -2.36,-1.91 -0.93,-0.41 -1.83,-0.69 -2.71,-0.84 -0.87,-0.14 -1.64,-0.22 -2.3,-0.22 -2.89,0 -5.14,0.6 -6.75,1.78 -1.6,1.19 -2.45,3.09 -2.53,5.7l3.48 0zm10.36 7.86c0,0.75 -0.19,1.44 -0.58,2.08 -0.39,0.65 -0.91,1.2 -1.57,1.68 -0.66,0.47 -1.41,0.84 -2.26,1.12 -0.84,0.27 -1.7,0.41 -2.56,0.41 -1.37,0 -2.4,-0.34 -3.08,-1.01 -0.67,-0.68 -1.01,-1.64 -1.01,-2.9 0,-0.66 0.15,-1.22 0.45,-1.68 0.3,-0.46 0.7,-0.81 1.18,-1.08 0.49,-0.26 0.99,-0.45 1.53,-0.58 0.53,-0.13 1.08,-0.23 1.66,-0.32 2.18,-0.29 3.67,-0.53 4.49,-0.73 0.82,-0.2 1.4,-0.43 1.74,-0.69l0 3.7zm29.69 -23.08l-3.78 0 0 11.56 -0.09 0 -0.04 -0.04c-0.34,-0.52 -0.67,-0.95 -0.99,-1.31 -0.32,-0.36 -0.73,-0.74 -1.25,-1.14 -0.52,-0.4 -1.15,-0.72 -1.89,-0.97 -0.75,-0.24 -1.59,-0.37 -2.54,-0.37 -2.89,0 -5.18,1.05 -6.85,3.16 -1.68,2.11 -2.52,4.79 -2.52,8.06 0,1.46 0.17,2.92 0.52,4.38 0.34,1.46 0.89,2.8 1.65,4.04 0.76,1.23 1.78,2.23 3.08,2.99 1.29,0.76 2.84,1.14 4.64,1.14 1.29,0 2.49,-0.28 3.61,-0.84 1.12,-0.56 2.05,-1.53 2.79,-2.9l0.09 0 0 3.09 3.57 0 0 -30.86zm-16.03 19.55c0,-0.97 0.06,-1.9 0.17,-2.79 0.12,-0.89 0.37,-1.77 0.77,-2.64 0.4,-0.88 1.03,-1.59 1.87,-2.15 0.85,-0.56 1.95,-0.84 3.33,-0.84 1.29,0 2.34,0.3 3.16,0.9 0.82,0.6 1.43,1.38 1.85,2.34 0.41,0.96 0.69,1.97 0.84,3.03 0.14,1.06 0.22,2.15 0.22,3.27 0,1.4 -0.2,2.61 -0.58,3.61 -0.39,1 -0.89,1.79 -1.5,2.37 -0.62,0.57 -1.28,0.98 -2,1.22 -0.71,0.24 -1.4,0.36 -2.06,0.36 -1.98,0 -3.48,-0.8 -4.52,-2.39 -1.03,-1.59 -1.55,-3.69 -1.55,-6.29zm37.43 4.26c-0.09,0.97 -0.62,1.92 -1.59,2.84 -0.54,0.49 -1.17,0.87 -1.87,1.16 -0.7,0.29 -1.48,0.43 -2.34,0.43 -2.15,0 -3.77,-0.64 -4.88,-1.91 -1.1,-1.27 -1.66,-3.1 -1.66,-5.48l16.42 0c0,-4.1 -0.82,-7.31 -2.45,-9.63 -1.63,-2.32 -4.04,-3.48 -7.22,-3.48 -1.81,0 -3.39,0.32 -4.75,0.95 -1.36,0.63 -2.5,1.52 -3.4,2.67 -0.9,1.15 -1.57,2.47 -2,3.97 -0.43,1.51 -0.65,3.15 -0.65,4.92 0,3.32 0.9,6.03 2.71,8.12 1.81,2.09 4.26,3.14 7.35,3.14 1.61,0 2.84,-0.14 3.72,-0.43 0.87,-0.29 1.67,-0.66 2.38,-1.12 0.66,-0.43 1.24,-0.94 1.74,-1.52 0.5,-0.59 0.92,-1.21 1.26,-1.87 0.58,-1.03 0.9,-1.95 0.99,-2.75l-3.78 0zm-12.33 -5.97c0,-0.86 0.16,-1.7 0.47,-2.52 0.31,-0.81 0.76,-1.54 1.33,-2.17 0.57,-0.63 1.25,-1.12 2.02,-1.48 0.77,-0.36 1.58,-0.54 2.4,-0.54 1.12,0 2.07,0.18 2.86,0.54 0.79,0.36 1.42,0.84 1.89,1.46 0.47,0.62 0.83,1.32 1.08,2.11 0.24,0.79 0.39,1.65 0.45,2.6l-12.51 0zm56.56 9.33l-18.61 0 0 -10.31 16.89 0 0 -3.7 -16.89 0 0 -9.45 18.31 0 0 -3.7 -22.48 0 0 30.86 22.78 0 0 -3.7zm16.2 -7.86l7.61 -10.91 -4.64 0 -5.2 7.91 -5.2 -7.91 -4.86 0 7.52 10.91 -7.91 11.56 4.77 0 5.41 -8.47 5.59 8.47 4.81 0 -7.91 -11.56zm20.24 -7.78l0 -3.14 -3.61 0 0 -6.28 -3.78 0 0 6.28 -3.05 0 0 3.14 3.05 0 0 14.83c0,1.52 0.33,2.7 0.99,3.54 0.66,0.85 1.85,1.27 3.57,1.27 0.14,0 0.52,-0.04 1.12,-0.13 0.83,-0.09 1.4,-0.14 1.72,-0.17l0 -2.96 -1.33 0c-0.63,0 -1.17,-0.1 -1.61,-0.3 -0.44,-0.2 -0.67,-0.69 -0.67,-1.46l0 -14.61 3.61 0zm19.85 12.29c-0.09,0.97 -0.62,1.92 -1.59,2.84 -0.54,0.49 -1.17,0.87 -1.87,1.16 -0.7,0.29 -1.48,0.43 -2.34,0.43 -2.15,0 -3.77,-0.64 -4.88,-1.91 -1.1,-1.27 -1.66,-3.1 -1.66,-5.48l16.42 0c0,-4.1 -0.82,-7.31 -2.45,-9.63 -1.63,-2.32 -4.04,-3.48 -7.22,-3.48 -1.81,0 -3.39,0.32 -4.75,0.95 -1.36,0.63 -2.5,1.52 -3.4,2.67 -0.9,1.15 -1.57,2.47 -2,3.97 -0.43,1.51 -0.65,3.15 -0.65,4.92 0,3.32 0.9,6.03 2.71,8.12 1.81,2.09 4.26,3.14 7.35,3.14 1.61,0 2.84,-0.14 3.72,-0.43 0.87,-0.29 1.67,-0.66 2.38,-1.12 0.66,-0.43 1.24,-0.94 1.74,-1.52 0.5,-0.59 0.92,-1.21 1.26,-1.87 0.58,-1.03 0.9,-1.95 0.99,-2.75l-3.78 0zm-12.33 -5.97c0,-0.86 0.16,-1.7 0.47,-2.52 0.31,-0.81 0.76,-1.54 1.33,-2.17 0.57,-0.63 1.25,-1.12 2.02,-1.48 0.77,-0.36 1.58,-0.54 2.4,-0.54 1.12,0 2.07,0.18 2.86,0.54 0.79,0.36 1.42,0.84 1.89,1.46 0.47,0.62 0.83,1.32 1.08,2.11 0.24,0.79 0.39,1.65 0.45,2.6l-12.51 0zm26.09 -0.04c0,-1.69 0.53,-3.12 1.59,-4.28 1.06,-1.16 2.45,-1.74 4.17,-1.74l1.42 0 0 -3.91c-0.29,-0.09 -0.62,-0.13 -0.99,-0.13 -1.34,0 -2.54,0.38 -3.57,1.14 -1.03,0.76 -1.95,1.84 -2.75,3.24l-0.09 0 0 -3.74 -3.57 0 0 22.48 3.78 0 0 -13.07zm15.38 -9.41l-3.78 0 0 22.48 3.78 0 0 -22.48zm0 -4.08l0 -4.3 -3.78 0 0 4.3 3.78 0zm5.24 15.3c0,1.49 0.22,2.94 0.65,4.34 0.43,1.4 1.07,2.68 1.93,3.83 0.86,1.14 1.96,2.05 3.29,2.7 1.33,0.66 2.86,0.99 4.58,0.99 1.72,0 3.25,-0.33 4.58,-0.99 1.33,-0.66 2.43,-1.56 3.29,-2.7 0.86,-1.15 1.5,-2.42 1.93,-3.83 0.43,-1.4 0.65,-2.85 0.65,-4.34 0,-1.49 -0.22,-2.94 -0.65,-4.36 -0.43,-1.42 -1.07,-2.69 -1.93,-3.83 -0.86,-1.13 -1.96,-2.02 -3.29,-2.68 -1.33,-0.66 -2.86,-0.99 -4.58,-0.99 -1.72,0 -3.24,0.33 -4.58,0.99 -1.33,0.66 -2.43,1.56 -3.29,2.71 -0.86,1.15 -1.51,2.42 -1.93,3.83 -0.43,1.4 -0.65,2.85 -0.65,4.34zm3.91 0c0,-0.86 0.1,-1.78 0.3,-2.75 0.2,-0.97 0.54,-1.9 1.01,-2.8 0.47,-0.89 1.14,-1.62 2,-2.19 0.86,-0.58 1.93,-0.86 3.22,-0.86 1.29,0 2.36,0.28 3.22,0.86 0.86,0.57 1.53,1.3 2.02,2.19 0.49,0.89 0.83,1.82 1.01,2.8 0.18,0.97 0.28,1.89 0.28,2.75 0,0.86 -0.1,1.78 -0.28,2.75 -0.19,0.97 -0.53,1.9 -1.01,2.79 -0.49,0.89 -1.16,1.62 -2.02,2.19 -0.86,0.57 -1.93,0.86 -3.22,0.86 -1.29,0 -2.36,-0.29 -3.22,-0.86 -0.86,-0.57 -1.53,-1.3 -2,-2.19 -0.47,-0.89 -0.81,-1.82 -1.01,-2.79 -0.2,-0.97 -0.3,-1.89 -0.3,-2.75zm26.43 -1.8c0,-1.69 0.53,-3.12 1.59,-4.28 1.06,-1.16 2.45,-1.74 4.17,-1.74l1.42 0 0 -3.91c-0.29,-0.09 -0.62,-0.13 -0.99,-0.13 -1.35,0 -2.54,0.38 -3.57,1.14 -1.03,0.76 -1.95,1.84 -2.75,3.24l-0.09 0 0 -3.74 -3.57 0 0 22.48 3.78 0 0 -13.07z"/>
   </g>
   <path class="fil0" d="M249.23 256.46l-3.78 0 0 11.56 -0.09 0 -0.05 -0.04c-0.34,-0.52 -0.67,-0.95 -0.98,-1.31 -0.32,-0.35 -0.73,-0.74 -1.25,-1.14 -0.52,-0.4 -1.15,-0.73 -1.89,-0.97 -0.75,-0.24 -1.59,-0.36 -2.54,-0.36 -2.89,0 -5.18,1.05 -6.85,3.16 -1.68,2.11 -2.52,4.79 -2.52,8.06 0,1.46 0.17,2.92 0.52,4.38 0.34,1.46 0.89,2.81 1.65,4.04 0.76,1.23 1.78,2.23 3.07,2.99 1.29,0.76 2.84,1.14 4.64,1.14 1.29,0 2.49,-0.28 3.61,-0.84 1.12,-0.56 2.05,-1.53 2.79,-2.9l0.08 0 0 3.09 3.57 0 0 -30.86zm-16.03 19.56c0,-0.97 0.06,-1.91 0.17,-2.79 0.12,-0.89 0.37,-1.77 0.77,-2.64 0.4,-0.87 1.03,-1.59 1.87,-2.15 0.85,-0.56 1.95,-0.84 3.33,-0.84 1.29,0 2.34,0.3 3.16,0.9 0.82,0.6 1.43,1.38 1.85,2.34 0.42,0.96 0.69,1.97 0.84,3.03 0.14,1.06 0.21,2.15 0.21,3.27 0,1.4 -0.19,2.61 -0.58,3.61 -0.39,1 -0.89,1.79 -1.5,2.36 -0.62,0.57 -1.28,0.98 -2,1.23 -0.72,0.24 -1.4,0.36 -2.06,0.36 -1.98,0 -3.48,-0.8 -4.52,-2.39 -1.03,-1.59 -1.55,-3.69 -1.55,-6.29zm20.84 0.04c0,1.49 0.22,2.94 0.65,4.34 0.43,1.41 1.08,2.68 1.93,3.83 0.86,1.14 1.95,2.05 3.29,2.71 1.33,0.66 2.86,0.99 4.58,0.99 1.72,0 3.25,-0.33 4.58,-0.99 1.33,-0.66 2.43,-1.56 3.29,-2.71 0.86,-1.15 1.5,-2.42 1.93,-3.83 0.43,-1.4 0.64,-2.85 0.64,-4.34 0,-1.49 -0.21,-2.94 -0.64,-4.36 -0.43,-1.42 -1.07,-2.69 -1.93,-3.83 -0.86,-1.13 -1.96,-2.03 -3.29,-2.68 -1.33,-0.66 -2.86,-0.99 -4.58,-0.99 -1.72,0 -3.24,0.33 -4.58,0.99 -1.33,0.66 -2.43,1.56 -3.29,2.71 -0.86,1.15 -1.51,2.42 -1.93,3.83 -0.43,1.4 -0.65,2.85 -0.65,4.34zm3.91 0c0,-0.86 0.1,-1.78 0.3,-2.75 0.2,-0.97 0.54,-1.91 1.01,-2.8 0.47,-0.89 1.14,-1.62 2,-2.19 0.86,-0.57 1.93,-0.86 3.22,-0.86 1.29,0 2.36,0.29 3.22,0.86 0.86,0.57 1.53,1.3 2.02,2.19 0.49,0.89 0.82,1.82 1.01,2.8 0.18,0.97 0.28,1.89 0.28,2.75 0,0.86 -0.1,1.78 -0.28,2.75 -0.19,0.97 -0.53,1.91 -1.01,2.79 -0.49,0.89 -1.16,1.62 -2.02,2.19 -0.86,0.57 -1.93,0.86 -3.22,0.86 -1.29,0 -2.36,-0.29 -3.22,-0.86 -0.86,-0.57 -1.53,-1.3 -2,-2.19 -0.47,-0.89 -0.81,-1.82 -1.01,-2.79 -0.2,-0.97 -0.3,-1.89 -0.3,-2.75zm56.9 7.56l-18.61 0 0 -10.31 16.89 0 0 -3.7 -16.89 0 0 -9.46 18.31 0 0 -3.7 -22.48 0 0 30.86 22.78 0 0 -3.7zm22.26 -12.38c0,-0.49 -0.09,-1.1 -0.28,-1.82 -0.19,-0.73 -0.57,-1.5 -1.14,-2.3 -0.57,-0.8 -1.44,-1.49 -2.62,-2.07 -1.17,-0.57 -2.69,-0.86 -4.56,-0.86 -2.41,0 -4.38,0.58 -5.93,1.72 -0.8,0.63 -1.43,1.4 -1.89,2.3 -0.46,0.9 -0.69,1.95 -0.69,3.16 0,1.49 0.45,2.67 1.35,3.54 0.9,0.87 2.19,1.51 3.85,1.91l4.38 1.07c1.69,0.43 2.86,0.86 3.5,1.29 0.64,0.43 0.96,1.08 0.96,1.93 0,1.18 -0.49,2.06 -1.48,2.67 -0.99,0.6 -2.22,0.9 -3.67,0.9 -1.24,0 -2.25,-0.14 -3.05,-0.43 -0.8,-0.28 -1.41,-0.66 -1.83,-1.14 -0.41,-0.47 -0.69,-0.95 -0.81,-1.42 -0.13,-0.47 -0.22,-1.01 -0.28,-1.61l-3.65 0c0.03,0.91 0.15,1.79 0.37,2.62 0.22,0.83 0.64,1.66 1.29,2.47 0.65,0.82 1.62,1.48 2.92,2 1.3,0.52 3,0.77 5.09,0.77 2.61,0 4.74,-0.67 6.4,-2.02 1.66,-1.35 2.49,-3.15 2.49,-5.41 0,-1.55 -0.47,-2.78 -1.42,-3.7 -0.94,-0.92 -2.58,-1.66 -4.9,-2.24l-3.78 -0.94c-1.6,-0.4 -2.69,-0.79 -3.24,-1.16 -0.56,-0.37 -0.84,-0.99 -0.84,-1.85 0,-0.66 0.17,-1.2 0.49,-1.63 0.33,-0.43 0.74,-0.76 1.23,-0.99 0.48,-0.23 0.97,-0.38 1.46,-0.45 0.49,-0.07 0.92,-0.11 1.29,-0.11 1.12,0 2.04,0.12 2.77,0.37 0.73,0.24 1.27,0.56 1.63,0.94 0.36,0.39 0.6,0.78 0.71,1.19 0.12,0.4 0.19,0.83 0.21,1.29l3.65 0zm14.18 -3.26l0 -3.14 -3.61 0 0 -6.28 -3.78 0 0 6.28 -3.05 0 0 3.14 3.05 0 0 14.83c0,1.52 0.33,2.7 0.99,3.54 0.66,0.85 1.85,1.27 3.57,1.27 0.14,0 0.52,-0.04 1.12,-0.13 0.83,-0.09 1.4,-0.15 1.72,-0.17l0 -2.96 -1.33 0c-0.63,0 -1.17,-0.1 -1.61,-0.3 -0.44,-0.2 -0.66,-0.69 -0.66,-1.46l0 -14.61 3.61 0zm7.91 3.7c0.09,-0.58 0.21,-1.09 0.36,-1.55 0.16,-0.46 0.42,-0.9 0.78,-1.33 0.35,-0.43 0.86,-0.78 1.52,-1.05 0.66,-0.27 1.49,-0.41 2.5,-0.41 3.52,0 5.28,1.22 5.28,3.66 0,1 -0.18,1.68 -0.54,2.04 -0.36,0.36 -0.84,0.57 -1.44,0.63l-6.23 0.77c-1.46,0.17 -2.66,0.54 -3.59,1.1 -0.93,0.56 -1.63,1.2 -2.11,1.91 -0.47,0.72 -0.78,1.41 -0.92,2.08 -0.14,0.68 -0.21,1.33 -0.21,1.96 0,1.92 0.66,3.48 1.98,4.69 1.32,1.2 3.01,1.8 5.07,1.8 1.95,0 3.55,-0.34 4.79,-1.03 1.25,-0.69 2.36,-1.56 3.33,-2.62 0.09,1.06 0.39,1.9 0.92,2.52 0.53,0.62 1.55,0.92 3.07,0.92 0.43,0 0.96,-0.1 1.59,-0.3 0.2,-0.06 0.36,-0.1 0.47,-0.13l0 -2.75c-0.58,0.11 -0.99,0.17 -1.25,0.17 -0.83,0 -1.25,-0.44 -1.25,-1.33l0 -12.93c0,-1.35 -0.32,-2.45 -0.97,-3.31 -0.64,-0.86 -1.43,-1.5 -2.36,-1.91 -0.93,-0.42 -1.83,-0.69 -2.71,-0.84 -0.87,-0.15 -1.64,-0.22 -2.3,-0.22 -2.89,0 -5.14,0.6 -6.75,1.78 -1.6,1.19 -2.45,3.09 -2.53,5.7l3.48 0zm10.36 7.86c0,0.75 -0.19,1.44 -0.58,2.09 -0.39,0.65 -0.91,1.2 -1.57,1.68 -0.66,0.47 -1.41,0.84 -2.26,1.12 -0.84,0.28 -1.7,0.41 -2.56,0.41 -1.37,0 -2.4,-0.34 -3.07,-1.01 -0.67,-0.67 -1.01,-1.64 -1.01,-2.9 0,-0.66 0.15,-1.21 0.45,-1.67 0.3,-0.46 0.7,-0.82 1.19,-1.08 0.49,-0.26 0.99,-0.45 1.52,-0.58 0.53,-0.13 1.08,-0.23 1.66,-0.32 2.18,-0.29 3.68,-0.53 4.49,-0.73 0.82,-0.2 1.4,-0.43 1.74,-0.69l0 3.7zm29.69 -23.08l-3.78 0 0 11.56 -0.09 0 -0.05 -0.04c-0.34,-0.52 -0.67,-0.95 -0.99,-1.31 -0.31,-0.35 -0.73,-0.74 -1.25,-1.14 -0.52,-0.4 -1.15,-0.73 -1.89,-0.97 -0.75,-0.24 -1.59,-0.36 -2.54,-0.36 -2.89,0 -5.18,1.05 -6.85,3.16 -1.67,2.11 -2.51,4.79 -2.51,8.06 0,1.46 0.17,2.92 0.52,4.38 0.34,1.46 0.89,2.81 1.65,4.04 0.76,1.23 1.78,2.23 3.07,2.99 1.29,0.76 2.84,1.14 4.64,1.14 1.29,0 2.49,-0.28 3.61,-0.84 1.12,-0.56 2.05,-1.53 2.79,-2.9l0.08 0 0 3.09 3.57 0 0 -30.86zm-16.03 19.56c0,-0.97 0.06,-1.91 0.17,-2.79 0.12,-0.89 0.37,-1.77 0.77,-2.64 0.4,-0.87 1.03,-1.59 1.87,-2.15 0.85,-0.56 1.95,-0.84 3.33,-0.84 1.29,0 2.34,0.3 3.16,0.9 0.82,0.6 1.43,1.38 1.85,2.34 0.42,0.96 0.69,1.97 0.84,3.03 0.15,1.06 0.22,2.15 0.22,3.27 0,1.4 -0.19,2.61 -0.58,3.61 -0.39,1 -0.89,1.79 -1.5,2.36 -0.62,0.57 -1.28,0.98 -2,1.23 -0.72,0.24 -1.4,0.36 -2.06,0.36 -1.98,0 -3.48,-0.8 -4.51,-2.39 -1.03,-1.59 -1.55,-3.69 -1.55,-6.29zm20.84 0.04c0,1.49 0.22,2.94 0.65,4.34 0.43,1.41 1.08,2.68 1.93,3.83 0.86,1.14 1.95,2.05 3.29,2.71 1.33,0.66 2.86,0.99 4.58,0.99 1.72,0 3.25,-0.33 4.58,-0.99 1.33,-0.66 2.43,-1.56 3.29,-2.71 0.86,-1.15 1.5,-2.42 1.93,-3.83 0.43,-1.4 0.64,-2.85 0.64,-4.34 0,-1.49 -0.21,-2.94 -0.64,-4.36 -0.43,-1.42 -1.08,-2.69 -1.93,-3.83 -0.86,-1.13 -1.96,-2.03 -3.29,-2.68 -1.33,-0.66 -2.86,-0.99 -4.58,-0.99 -1.72,0 -3.24,0.33 -4.58,0.99 -1.33,0.66 -2.43,1.56 -3.29,2.71 -0.86,1.15 -1.51,2.42 -1.93,3.83 -0.43,1.4 -0.65,2.85 -0.65,4.34zm3.91 0c0,-0.86 0.1,-1.78 0.3,-2.75 0.2,-0.97 0.54,-1.91 1.01,-2.8 0.47,-0.89 1.14,-1.62 2,-2.19 0.86,-0.57 1.93,-0.86 3.23,-0.86 1.29,0 2.36,0.29 3.22,0.86 0.86,0.57 1.53,1.3 2.02,2.19 0.49,0.89 0.82,1.82 1.01,2.8 0.18,0.97 0.28,1.89 0.28,2.75 0,0.86 -0.1,1.78 -0.28,2.75 -0.19,0.97 -0.53,1.91 -1.01,2.79 -0.49,0.89 -1.16,1.62 -2.02,2.19 -0.86,0.57 -1.93,0.86 -3.22,0.86 -1.29,0 -2.36,-0.29 -3.23,-0.86 -0.86,-0.57 -1.52,-1.3 -2,-2.19 -0.47,-0.89 -0.81,-1.82 -1.01,-2.79 -0.2,-0.97 -0.3,-1.89 -0.3,-2.75zm51.87 -19.6l-3.78 0 0 11.56 -0.09 0 -0.04 -0.04c-0.34,-0.52 -0.67,-0.95 -0.99,-1.31 -0.31,-0.35 -0.73,-0.74 -1.25,-1.14 -0.52,-0.4 -1.15,-0.73 -1.89,-0.97 -0.75,-0.24 -1.59,-0.36 -2.54,-0.36 -2.89,0 -5.18,1.05 -6.85,3.16 -1.67,2.11 -2.52,4.79 -2.52,8.06 0,1.46 0.17,2.92 0.52,4.38 0.34,1.46 0.89,2.81 1.65,4.04 0.76,1.23 1.78,2.23 3.08,2.99 1.29,0.76 2.84,1.14 4.64,1.14 1.29,0 2.5,-0.28 3.61,-0.84 1.12,-0.56 2.05,-1.53 2.79,-2.9l0.09 0 0 3.09 3.57 0 0 -30.86zm-16.03 19.56c0,-0.97 0.06,-1.91 0.17,-2.79 0.12,-0.89 0.37,-1.77 0.78,-2.64 0.4,-0.87 1.03,-1.59 1.87,-2.15 0.85,-0.56 1.96,-0.84 3.33,-0.84 1.29,0 2.34,0.3 3.16,0.9 0.82,0.6 1.43,1.38 1.85,2.34 0.41,0.96 0.69,1.97 0.84,3.03 0.14,1.06 0.22,2.15 0.22,3.27 0,1.4 -0.19,2.61 -0.58,3.61 -0.39,1 -0.89,1.79 -1.5,2.36 -0.62,0.57 -1.28,0.98 -2,1.23 -0.72,0.24 -1.4,0.36 -2.06,0.36 -1.98,0 -3.48,-0.8 -4.52,-2.39 -1.03,-1.59 -1.55,-3.69 -1.55,-6.29zm37.43 4.25c-0.08,0.97 -0.62,1.92 -1.59,2.84 -0.54,0.49 -1.17,0.87 -1.87,1.16 -0.7,0.29 -1.48,0.43 -2.34,0.43 -2.15,0 -3.77,-0.64 -4.88,-1.91 -1.1,-1.27 -1.66,-3.1 -1.66,-5.48l16.42 0c0,-4.1 -0.81,-7.31 -2.45,-9.63 -1.63,-2.32 -4.04,-3.48 -7.22,-3.48 -1.81,0 -3.39,0.31 -4.75,0.95 -1.36,0.63 -2.49,1.52 -3.4,2.66 -0.9,1.15 -1.57,2.47 -2,3.97 -0.43,1.51 -0.65,3.15 -0.65,4.92 0,3.32 0.9,6.03 2.71,8.12 1.81,2.09 4.26,3.14 7.35,3.14 1.61,0 2.84,-0.14 3.72,-0.43 0.87,-0.29 1.67,-0.66 2.38,-1.12 0.66,-0.43 1.24,-0.94 1.74,-1.53 0.5,-0.59 0.92,-1.21 1.27,-1.87 0.57,-1.03 0.9,-1.94 0.99,-2.75l-3.78 0zm-12.33 -5.97c0,-0.86 0.16,-1.7 0.47,-2.52 0.31,-0.82 0.76,-1.54 1.33,-2.17 0.57,-0.63 1.25,-1.13 2.02,-1.48 0.77,-0.36 1.58,-0.54 2.41,-0.54 1.12,0 2.07,0.18 2.86,0.54 0.79,0.36 1.42,0.84 1.89,1.46 0.47,0.62 0.83,1.32 1.07,2.11 0.24,0.79 0.39,1.65 0.45,2.6l-12.51 0zm55.87 -8.81c-0.06,-1.12 -0.23,-2.2 -0.52,-3.27 -0.29,-1.06 -0.84,-2.09 -1.66,-3.09 -0.82,-1 -2.04,-1.83 -3.65,-2.49 -1.62,-0.66 -3.69,-0.99 -6.21,-0.99 -1.8,0 -3.39,0.26 -4.75,0.77 -1.36,0.52 -2.47,1.22 -3.33,2.13 -0.86,0.9 -1.5,1.93 -1.91,3.07 -0.42,1.15 -0.63,2.33 -0.63,3.57 0,1.26 0.23,2.33 0.69,3.22 0.46,0.89 1.03,1.61 1.72,2.15 0.69,0.55 1.38,0.95 2.08,1.23 0.7,0.27 1.4,0.49 2.09,0.67l6.32 1.46c1.35,0.31 2.43,0.62 3.25,0.92 0.81,0.3 1.47,0.65 1.95,1.05 0.49,0.4 0.84,0.87 1.05,1.42 0.22,0.54 0.32,1.23 0.32,2.06 0,1.03 -0.27,1.9 -0.8,2.6 -0.53,0.7 -1.2,1.24 -2.02,1.61 -0.82,0.37 -1.68,0.63 -2.58,0.77 -0.9,0.14 -1.8,0.22 -2.68,0.22 -1.06,0 -2.09,-0.12 -3.08,-0.36 -0.99,-0.24 -1.9,-0.65 -2.73,-1.2 -0.83,-0.56 -1.48,-1.31 -1.97,-2.26 -0.49,-0.94 -0.73,-2.08 -0.73,-3.39l-3.91 0c0,1.63 0.22,3.07 0.64,4.32 0.43,1.25 1.26,2.41 2.49,3.5 0.46,0.4 0.92,0.76 1.4,1.07 0.47,0.32 1.06,0.62 1.76,0.9 0.7,0.29 1.57,0.52 2.6,0.71 1.03,0.19 2.22,0.28 3.57,0.28 1.46,0 2.89,-0.16 4.28,-0.47 1.39,-0.32 2.68,-0.82 3.87,-1.53 1.19,-0.7 2.14,-1.67 2.86,-2.9 0.72,-1.23 1.08,-2.71 1.08,-4.43 0,-2.32 -0.63,-4.15 -1.89,-5.48 -1.26,-1.33 -2.96,-2.25 -5.11,-2.77l-8.81 -2.02c-1.09,-0.26 -1.97,-0.68 -2.64,-1.27 -0.68,-0.59 -1.01,-1.47 -1.01,-2.64 0,-1.12 0.23,-2.03 0.69,-2.75 0.46,-0.72 1.05,-1.27 1.76,-1.65 0.72,-0.39 1.46,-0.65 2.24,-0.8 0.77,-0.14 1.56,-0.21 2.36,-0.21 0.92,0 1.81,0.11 2.69,0.32 0.87,0.21 1.68,0.57 2.41,1.05 0.73,0.49 1.32,1.14 1.78,1.95 0.46,0.82 0.71,1.8 0.77,2.94l3.91 0zm9.88 6.19c0.09,-0.58 0.21,-1.09 0.36,-1.55 0.16,-0.46 0.42,-0.9 0.78,-1.33 0.35,-0.43 0.86,-0.78 1.52,-1.05 0.66,-0.27 1.49,-0.41 2.5,-0.41 3.52,0 5.28,1.22 5.28,3.66 0,1 -0.18,1.68 -0.54,2.04 -0.36,0.36 -0.84,0.57 -1.44,0.63l-6.23 0.77c-1.46,0.17 -2.66,0.54 -3.59,1.1 -0.93,0.56 -1.63,1.2 -2.11,1.91 -0.47,0.72 -0.78,1.41 -0.92,2.08 -0.14,0.68 -0.22,1.33 -0.22,1.96 0,1.92 0.66,3.48 1.98,4.69 1.32,1.2 3.01,1.8 5.07,1.8 1.95,0 3.55,-0.34 4.79,-1.03 1.25,-0.69 2.35,-1.56 3.33,-2.62 0.09,1.06 0.39,1.9 0.92,2.52 0.53,0.62 1.55,0.92 3.07,0.92 0.43,0 0.96,-0.1 1.59,-0.3 0.2,-0.06 0.36,-0.1 0.47,-0.13l0 -2.75c-0.58,0.11 -0.99,0.17 -1.25,0.17 -0.83,0 -1.25,-0.44 -1.25,-1.33l0 -12.93c0,-1.35 -0.32,-2.45 -0.97,-3.31 -0.64,-0.86 -1.43,-1.5 -2.36,-1.91 -0.93,-0.42 -1.83,-0.69 -2.71,-0.84 -0.87,-0.15 -1.64,-0.22 -2.3,-0.22 -2.89,0 -5.14,0.6 -6.75,1.78 -1.6,1.19 -2.45,3.09 -2.53,5.7l3.48 0zm10.36 7.86c0,0.75 -0.2,1.44 -0.58,2.09 -0.39,0.65 -0.91,1.2 -1.57,1.68 -0.66,0.47 -1.41,0.84 -2.26,1.12 -0.84,0.28 -1.7,0.41 -2.56,0.41 -1.37,0 -2.4,-0.34 -3.07,-1.01 -0.67,-0.67 -1.01,-1.64 -1.01,-2.9 0,-0.66 0.15,-1.21 0.45,-1.67 0.3,-0.46 0.7,-0.82 1.18,-1.08 0.49,-0.26 0.99,-0.45 1.53,-0.58 0.53,-0.13 1.08,-0.23 1.66,-0.32 2.18,-0.29 3.67,-0.53 4.49,-0.73 0.82,-0.2 1.4,-0.43 1.74,-0.69l0 3.7zm0.21 -23.25c-0.12,0.6 -0.31,1.08 -0.6,1.44 -0.28,0.36 -0.8,0.54 -1.55,0.54 -0.2,0 -0.49,-0.05 -0.88,-0.15 -0.39,-0.1 -0.76,-0.24 -1.14,-0.41l-0.95 -0.39c-1.12,-0.43 -2.09,-0.64 -2.92,-0.64 -1.35,0 -2.38,0.42 -3.1,1.27 -0.72,0.84 -1.17,1.95 -1.37,3.33l2.06 0c0.2,-0.63 0.45,-1.1 0.75,-1.42 0.3,-0.32 0.73,-0.47 1.27,-0.47 0.26,0 0.57,0.04 0.95,0.13 0.37,0.09 0.93,0.26 1.67,0.52l1.12 0.39c0.66,0.2 1.15,0.34 1.48,0.43 0.33,0.09 0.68,0.13 1.05,0.13 1.17,0 2.15,-0.45 2.92,-1.33 0.77,-0.89 1.23,-2.01 1.37,-3.35l-2.15 0zm9.54 19.77c0,1.49 0.22,2.94 0.65,4.34 0.43,1.41 1.08,2.68 1.93,3.83 0.86,1.14 1.96,2.05 3.29,2.71 1.33,0.66 2.86,0.99 4.58,0.99 1.72,0 3.25,-0.33 4.58,-0.99 1.33,-0.66 2.43,-1.56 3.29,-2.71 0.86,-1.15 1.5,-2.42 1.93,-3.83 0.43,-1.4 0.64,-2.85 0.64,-4.34 0,-1.49 -0.22,-2.94 -0.64,-4.36 -0.43,-1.42 -1.08,-2.69 -1.93,-3.83 -0.86,-1.13 -1.95,-2.03 -3.29,-2.68 -1.33,-0.66 -2.86,-0.99 -4.58,-0.99 -1.72,0 -3.24,0.33 -4.58,0.99 -1.33,0.66 -2.43,1.56 -3.29,2.71 -0.86,1.15 -1.51,2.42 -1.93,3.83 -0.43,1.4 -0.65,2.85 -0.65,4.34zm3.91 0c0,-0.86 0.1,-1.78 0.3,-2.75 0.2,-0.97 0.53,-1.91 1.01,-2.8 0.47,-0.89 1.14,-1.62 2,-2.19 0.86,-0.57 1.93,-0.86 3.22,-0.86 1.29,0 2.36,0.29 3.22,0.86 0.86,0.57 1.53,1.3 2.02,2.19 0.48,0.89 0.82,1.82 1.01,2.8 0.19,0.97 0.28,1.89 0.28,2.75 0,0.86 -0.09,1.78 -0.28,2.75 -0.19,0.97 -0.53,1.91 -1.01,2.79 -0.49,0.89 -1.16,1.62 -2.02,2.19 -0.86,0.57 -1.93,0.86 -3.22,0.86 -1.29,0 -2.36,-0.29 -3.22,-0.86 -0.86,-0.57 -1.53,-1.3 -2,-2.19 -0.47,-0.89 -0.81,-1.82 -1.01,-2.79 -0.2,-0.97 -0.3,-1.89 -0.3,-2.75zm38.29 -16.03l8.47 0c1.89,0 3.38,0.4 4.47,1.2 1.09,0.8 1.63,2.12 1.63,3.95 0,1.97 -0.55,3.39 -1.63,4.26 -1.09,0.86 -2.64,1.29 -4.64,1.29l-8.29 0 0 -10.7zm0 14.27l9.71 0c1.61,0 3,-0.27 4.17,-0.8 1.17,-0.53 2.12,-1.23 2.85,-2.11 0.73,-0.87 1.27,-1.85 1.61,-2.92 0.34,-1.08 0.52,-2.18 0.52,-3.33 0,-2.55 -0.82,-4.63 -2.47,-6.26 -1.65,-1.62 -3.87,-2.43 -6.68,-2.43l-13.88 0 0 30.86 4.17 0 0 -13.02zm26.09 -2.62c0.09,-0.58 0.21,-1.09 0.36,-1.55 0.16,-0.46 0.41,-0.9 0.77,-1.33 0.36,-0.43 0.87,-0.78 1.53,-1.05 0.66,-0.27 1.49,-0.41 2.49,-0.41 3.53,0 5.29,1.22 5.29,3.66 0,1 -0.18,1.68 -0.54,2.04 -0.36,0.36 -0.84,0.57 -1.44,0.63l-6.23 0.77c-1.46,0.17 -2.66,0.54 -3.59,1.1 -0.93,0.56 -1.63,1.2 -2.11,1.91 -0.47,0.72 -0.78,1.41 -0.92,2.08 -0.14,0.68 -0.22,1.33 -0.22,1.96 0,1.92 0.66,3.48 1.98,4.69 1.32,1.2 3.01,1.8 5.07,1.8 1.95,0 3.55,-0.34 4.79,-1.03 1.25,-0.69 2.35,-1.56 3.33,-2.62 0.09,1.06 0.39,1.9 0.92,2.52 0.53,0.62 1.55,0.92 3.07,0.92 0.43,0 0.96,-0.1 1.59,-0.3 0.2,-0.06 0.36,-0.1 0.47,-0.13l0 -2.75c-0.57,0.11 -0.99,0.17 -1.25,0.17 -0.83,0 -1.25,-0.44 -1.25,-1.33l0 -12.93c0,-1.35 -0.32,-2.45 -0.97,-3.31 -0.64,-0.86 -1.43,-1.5 -2.36,-1.91 -0.93,-0.42 -1.83,-0.69 -2.71,-0.84 -0.87,-0.15 -1.64,-0.22 -2.3,-0.22 -2.89,0 -5.14,0.6 -6.75,1.78 -1.6,1.19 -2.45,3.09 -2.54,5.7l3.48 0zm10.35 7.86c0,0.75 -0.19,1.44 -0.58,2.09 -0.39,0.65 -0.91,1.2 -1.57,1.68 -0.66,0.47 -1.41,0.84 -2.26,1.12 -0.84,0.28 -1.7,0.41 -2.56,0.41 -1.37,0 -2.4,-0.34 -3.07,-1.01 -0.67,-0.67 -1.01,-1.64 -1.01,-2.9 0,-0.66 0.15,-1.21 0.45,-1.67 0.3,-0.46 0.7,-0.82 1.18,-1.08 0.49,-0.26 0.99,-0.45 1.53,-0.58 0.53,-0.13 1.08,-0.23 1.66,-0.32 2.18,-0.29 3.67,-0.53 4.49,-0.73 0.82,-0.2 1.4,-0.43 1.74,-0.69l0 3.7zm29.27 7.78l0 -22.48 -3.78 0 0 12.37c0,0.89 -0.11,1.76 -0.32,2.62 -0.22,0.86 -0.56,1.66 -1.03,2.41 -0.47,0.74 -1.11,1.34 -1.91,1.78 -0.8,0.44 -1.78,0.67 -2.92,0.67 -1.35,0 -2.41,-0.39 -3.18,-1.16 -0.77,-0.77 -1.16,-2.03 -1.16,-3.78l0 -14.91 -3.78 0 0 16.16c0,1.29 0.22,2.38 0.65,3.29 0.43,0.9 1,1.63 1.72,2.17 0.72,0.55 1.5,0.93 2.34,1.16 0.84,0.23 1.71,0.34 2.6,0.34 1.75,0 3.17,-0.32 4.26,-0.96 1.09,-0.65 2.05,-1.66 2.88,-3.03l0.09 0.09 0 3.26 3.57 0zm10.4 -30.86l-3.78 0 0 30.86 3.78 0 0 -30.86zm5.24 19.6c0,1.49 0.22,2.94 0.65,4.34 0.43,1.41 1.08,2.68 1.93,3.83 0.86,1.14 1.95,2.05 3.29,2.71 1.33,0.66 2.86,0.99 4.58,0.99 1.72,0 3.25,-0.33 4.58,-0.99 1.33,-0.66 2.43,-1.56 3.29,-2.71 0.86,-1.15 1.5,-2.42 1.93,-3.83 0.43,-1.4 0.64,-2.85 0.64,-4.34 0,-1.49 -0.21,-2.94 -0.64,-4.36 -0.43,-1.42 -1.07,-2.69 -1.93,-3.83 -0.86,-1.13 -1.96,-2.03 -3.29,-2.68 -1.33,-0.66 -2.86,-0.99 -4.58,-0.99 -1.72,0 -3.24,0.33 -4.58,0.99 -1.33,0.66 -2.43,1.56 -3.29,2.71 -0.86,1.15 -1.51,2.42 -1.93,3.83 -0.43,1.4 -0.65,2.85 -0.65,4.34zm3.91 0c0,-0.86 0.1,-1.78 0.3,-2.75 0.2,-0.97 0.54,-1.91 1.01,-2.8 0.47,-0.89 1.14,-1.62 2,-2.19 0.86,-0.57 1.93,-0.86 3.22,-0.86 1.29,0 2.36,0.29 3.22,0.86 0.86,0.57 1.53,1.3 2.02,2.19 0.49,0.89 0.82,1.82 1.01,2.8 0.18,0.97 0.28,1.89 0.28,2.75 0,0.86 -0.1,1.78 -0.28,2.75 -0.19,0.97 -0.53,1.91 -1.01,2.79 -0.49,0.89 -1.16,1.62 -2.02,2.19 -0.86,0.57 -1.93,0.86 -3.22,0.86 -1.29,0 -2.36,-0.29 -3.22,-0.86 -0.86,-0.57 -1.53,-1.3 -2,-2.19 -0.47,-0.89 -0.81,-1.82 -1.01,-2.79 -0.2,-0.97 -0.3,-1.89 -0.3,-2.75z"/>
   <path class="fil0" d="M213.31 23.63c20.54,0 37.92,13.76 43.4,32.54l-86.79 0c5.49,-18.78 22.85,-32.54 43.38,-32.54zm54.3 52.43l3.8 0c5.91,-0.77 10.52,-5.81 10.56,-11.94 -2.42,-35.76 -32.28,-64.1 -68.67,-64.1 -37.96,0 -68.84,30.88 -68.84,68.85 0,37.96 30.88,68.82 68.84,68.82 27.26,0 50.83,-15.89 61.97,-38.93 0.09,-0.32 0.16,-0.64 0.16,-0.99 0,-2 -1.64,-3.66 -3.65,-3.66l-19.14 0c-1.16,0 -2.21,0.58 -2.87,1.43 -8.24,11.22 -21.52,18.54 -36.48,18.54 -22.48,0 -41.17,-16.5 -44.63,-38.01l89.26 0 9.67 0z"/>
   <path class="fil0" d="M129.42 78.74c-0.23,-0.28 -0.51,-0.53 -0.79,-0.77 -0.06,-0.05 -0.11,-0.11 -0.19,-0.17 -0.21,-0.21 -0.49,-0.38 -0.72,-0.58 -0.09,-0.08 -0.19,-0.13 -0.27,-0.19 -0.24,-0.16 -0.47,-0.32 -0.73,-0.47 -0.12,-0.06 -0.21,-0.14 -0.33,-0.19 -0.26,-0.15 -0.53,-0.27 -0.79,-0.39 -0.11,-0.05 -0.21,-0.11 -0.33,-0.15 -0.38,-0.17 -0.78,-0.32 -1.17,-0.44l-4.87 -1.48 -0.06 -0.03c-0.11,-0.03 -0.24,-0.09 -0.54,-0.17 -0.13,-0.04 -0.27,-0.08 -0.47,-0.13 -0.16,-0.05 -0.33,-0.12 -0.55,-0.17 -0.16,-0.06 -0.35,-0.11 -0.53,-0.18 -1.27,-0.38 -3.04,-0.93 -5.27,-1.6 -16.27,-5 -55.9,-17.15 -84.02,-25.78 7.86,-13.29 22.34,-22.23 38.9,-22.23 20.24,0 37.44,13.39 43.18,31.78 0.44,0.83 1.29,1.4 2.31,1.4l1.1 0 16.86 0c1.95,-0.23 3.46,-1.89 3.46,-3.9 0,-0.1 -0.01,-0.16 -0.02,-0.26 -7.31,-30.16 -34.52,-52.63 -66.9,-52.63 -30.25,0 -56,19.62 -65.21,46.81 -0.57,2.29 -0.44,4.56 0.24,6.66l0 0.01c0,0.03 0.01,0.07 0.01,0.09 0.13,0.39 0.28,0.77 0.43,1.13 0.02,0.05 0.06,0.08 0.06,0.11 0.18,0.35 0.33,0.69 0.55,1.03 0.05,0.07 0.1,0.16 0.15,0.23 0.16,0.29 0.35,0.58 0.55,0.84 0.05,0.08 0.09,0.15 0.16,0.22 0.23,0.26 0.46,0.53 0.69,0.8 0.06,0.07 0.08,0.11 0.12,0.15 1.38,1.47 3.14,2.62 5.23,3.25l4.87 1.48c0.02,0.01 2.64,0.82 7.1,2.18l0 -0.02 5.18 1.61c18.36,5.62 53.52,16.36 79.34,24.26 -7.74,13.83 -22.52,23.21 -39.47,23.21 -19.97,0 -36.92,-12.99 -42.9,-30.95l-0.02 0c-0.44,-0.85 -1.3,-1.45 -2.32,-1.45l-1.11 0c-0.01,0 -9.32,0.02 -16.9,0.02 -1.94,0.26 -3.44,1.9 -3.44,3.9 0,0.16 0.02,0.32 0.02,0.48 7.68,29.65 34.67,51.61 66.68,51.61 30.89,0 57.08,-20.43 65.76,-48.5 0.7,-3.83 -0.5,-7.64 -2.99,-10.37 -0.02,-0.02 -0.04,-0.02 -0.06,-0.06z"/>
   <path class="fil0" d="M506.13 23.63c20.52,0 37.9,13.76 43.38,32.54l-86.78 0c5.51,-18.78 22.87,-32.54 43.39,-32.54zm54.29 52.43l3.81 0c5.94,-0.77 10.52,-5.81 10.54,-11.94 -2.42,-35.76 -32.27,-64.1 -68.63,-64.1 -37.94,0 -68.84,30.88 -68.84,68.85 0,37.96 30.89,68.82 68.84,68.82 27.24,0 50.84,-15.89 61.97,-38.93 0.08,-0.32 0.16,-0.64 0.16,-0.99 0,-2 -1.63,-3.66 -3.65,-3.66l-19.15 0c-1.16,0 -2.2,0.58 -2.87,1.43 -8.23,11.22 -21.51,18.54 -36.47,18.54 -22.48,0 -41.19,-16.5 -44.64,-38.01l89.27 0 9.66 0z"/>
   <path class="fil0" d="M642.47 52.98l-0.27 0c-2.11,0 -4.17,-0.24 -6.11,-0.67 -14.69,-2.95 -25.76,-15.93 -25.76,-31.48 0,-4.72 1.05,-9.18 2.85,-13.21 -1.37,-3.19 -4.15,-5.73 -7.74,-6.73 -6.28,-1.71 -12.79,2.01 -14.5,8.29 -1.22,4.56 -1.87,9.31 -1.87,14.05 0,16.28 7.35,30.87 18.89,40.66 -15.47,10.9 -25.59,28.85 -25.59,49.16 0,5.45 0.71,10.88 2.18,16.09 1.45,5.24 6.2,8.66 11.37,8.66 1.04,0 2.09,-0.14 3.15,-0.42 3.37,-0.94 5.97,-3.24 7.4,-6.13 -2.03,-4.76 -3.18,-9.99 -3.18,-15.48 0,-19.68 14.52,-35.95 33.45,-38.71 1.79,-0.31 3.64,-0.46 5.51,-0.46l0.21 0 0.13 0c1.89,0 3.76,0.14 5.6,0.46 18.89,2.76 33.44,19.04 33.44,38.71 0,5.48 -1.13,10.7 -3.19,15.41 1.44,2.9 4.09,5.2 7.43,6.13 6.27,1.74 12.77,-1.96 14.52,-8.24 1.43,-5.2 2.19,-10.6 2.19,-16.02 0,-33.13 -26.99,-60.08 -60.11,-60.08z"/>
   <path class="fil0" d="M685.76 53.3c1.14,-0.91 2.16,-2.02 2.93,-3.35 4.67,-8.1 7.14,-17.32 7.14,-26.71 0,-4.76 -0.62,-9.51 -1.87,-14.07 -1.74,-6.29 -8.23,-10 -14.5,-8.29 -3.62,0.99 -6.35,3.54 -7.72,6.73 1.8,4.03 2.85,8.51 2.85,13.23 0,8.96 -3.71,17.08 -9.64,22.91 7.45,2.17 14.4,5.42 20.8,9.56z"/>
   <path class="fil0" d="M359.67 114.06c-24.93,0 -45.24,-20.28 -45.24,-45.22 0,-24.94 20.3,-45.22 45.24,-45.22 24.92,0 45.23,20.28 45.23,45.22 0,24.94 -20.31,45.22 -45.23,45.22zm0 -114.05c-37.85,0 -68.63,30.69 -68.85,68.46l-0.01 0 0 93.12c0.28,6.83 5.93,12.29 12.81,12.29l1.49 0 3.45 0c1.9,-0.08 3.4,-1.57 3.53,-3.42l0 -51.94c12.34,11.84 29.13,19.16 47.57,19.16 37.97,0 68.83,-30.88 68.83,-68.83 0,-37.98 -30.86,-68.84 -68.83,-68.84z"/>
   <path class="fil1" d="M857.2 78.74c-0.23,-0.28 -0.5,-0.53 -0.77,-0.77 -0.07,-0.05 -0.15,-0.11 -0.19,-0.17 -0.22,-0.21 -0.46,-0.38 -0.72,-0.58 -0.11,-0.08 -0.19,-0.13 -0.28,-0.19 -0.24,-0.16 -0.48,-0.32 -0.75,-0.47 -0.09,-0.06 -0.2,-0.14 -0.31,-0.19 -0.28,-0.15 -0.54,-0.27 -0.77,-0.39 -0.13,-0.05 -0.25,-0.11 -0.36,-0.15 -0.37,-0.17 -0.75,-0.32 -1.16,-0.44l-4.87 -1.48 -0.07 -0.03c-0.09,-0.03 -0.25,-0.09 -0.52,-0.17 -0.12,-0.04 -0.31,-0.08 -0.46,-0.13 -0.18,-0.05 -0.35,-0.12 -0.56,-0.17 -0.17,-0.06 -0.36,-0.11 -0.59,-0.18 -1.22,-0.38 -3,-0.93 -5.22,-1.6 -16.27,-5 -55.91,-17.15 -84.03,-25.78 7.89,-13.29 22.35,-22.23 38.91,-22.23 20.24,0 37.46,13.39 43.18,31.78 0.43,0.83 1.31,1.4 2.31,1.4l1.1 0 16.88 0c1.94,-0.23 3.42,-1.89 3.42,-3.9l0 -0.26c-7.31,-30.16 -34.53,-52.63 -66.9,-52.63 -30.27,0 -56.02,19.62 -65.2,46.81 -0.57,2.29 -0.43,4.56 0.24,6.66l0 0.01 0 0.09c0.15,0.39 0.28,0.77 0.44,1.13 0,0.05 0.04,0.08 0.06,0.11 0.15,0.35 0.34,0.69 0.52,1.03 0.04,0.07 0.11,0.16 0.15,0.23 0.18,0.29 0.37,0.58 0.57,0.84 0.05,0.08 0.1,0.15 0.14,0.22 0.26,0.26 0.48,0.53 0.72,0.8 0.04,0.07 0.07,0.11 0.14,0.15 1.38,1.47 3.15,2.62 5.24,3.25l4.85 1.48c0.02,0.01 2.62,0.82 7.1,2.18l0 -0.02 5.16 1.61c18.38,5.62 53.54,16.36 79.36,24.26 -7.72,13.83 -22.52,23.21 -39.47,23.21 -19.97,0 -36.93,-12.99 -42.91,-30.95l-0.02 0c-0.46,-0.85 -1.31,-1.45 -2.33,-1.45l-1.1 0c0,0 -9.32,0.02 -16.9,0.02 -1.94,0.26 -3.44,1.9 -3.44,3.9 0,0.16 0.02,0.32 0.04,0.48 7.66,29.65 34.64,51.61 66.66,51.61 30.9,0 57.09,-20.43 65.77,-48.5 0.71,-3.83 -0.48,-7.64 -3,-10.37 -0.02,-0.02 -0.02,-0.02 -0.06,-0.06z"/>
   <path class="fil1" d="M940.7 114.06c-24.9,0 -45.24,-20.28 -45.24,-45.22 0,-24.94 20.34,-45.22 45.24,-45.22 24.96,0 45.21,20.28 45.21,45.22 0,24.94 -20.25,45.22 -45.21,45.22zm0 -114.05c-37.85,0 -68.61,30.69 -68.83,68.46l-0.02 0 0 93.12c0.29,6.83 5.91,12.29 12.82,12.29l1.51 0 3.45 0c1.9,-0.08 3.36,-1.57 3.5,-3.42l0 -51.94c12.36,11.84 29.14,19.16 47.57,19.16 37.96,0 68.83,-30.88 68.83,-68.83 0,-37.98 -30.87,-68.84 -68.83,-68.84z"/>
  </g>
 </g>
</svg>
