<?xml version="1.0" encoding="UTF-8"?>
<!DOCTYPE svg PUBLIC "-//W3C//DTD SVG 1.1//EN" "http://www.w3.org/Graphics/SVG/1.1/DTD/svg11.dtd">
<!-- Creator: CorelDRAW 2020 (64 Bit) -->
<svg xmlns="http://www.w3.org/2000/svg" xml:space="preserve" width="266.01mm" height="116.556mm" version="1.1" style="shape-rendering:geometricPrecision; text-rendering:geometricPrecision; image-rendering:optimizeQuality; fill-rule:evenodd; clip-rule:evenodd"
viewBox="0 0 26599.86 11655.12"
 xmlns:xlink="http://www.w3.org/1999/xlink"
 xmlns:xodm="http://www.corel.com/coreldraw/odm/2003">
 <defs>
  <style type="text/css">
   <![CDATA[
    .fil1 {fill:#006B3E}
    .fil0 {fill:#201E1E;fill-rule:nonzero}
   ]]>
  </style>
 </defs>
 <g id="Camada_x0020_1">
  <metadata id="CorelCorpID_0Corel-Layer"/>
  <g id="_2672732616512">
   <path class="fil0" d="M-0 4215.78l7538.14 0c959.91,18.82 1712.81,216.45 2258.64,592.91 545.82,376.41 823.45,1091.66 832.87,2145.67l0 4700.76 -1976.31 0 0 -4460.77c0,-696.41 -148.22,-1098.73 -444.65,-1206.96 -296.45,-108.21 -741.11,-152.91 -1334,-134.08 -94.12,9.41 -190.58,14.11 -289.38,14.11 -98.82,0 -199.98,0 -303.51,0l0 5787.71 -2004.54 0 0 -5801.82 -2300.95 0 0 5801.82 -1976.3 0 0 -7439.34z"/>
   <polygon class="fil0" points="21588.56,7942.51 18821.74,4215.78 21108.59,4215.78 22703.76,6460.3 24341.25,4215.78 26599.86,4215.78 23847.16,7984.86 26557.51,11655.12 24270.67,11655.12 22703.76,9495.3 21122.71,11655.12 18849.97,11655.12 "/>
   <path class="fil0" d="M15047.88 11655.12c-527,0 -1037.56,-63.53 -1531.62,-190.58 -494.06,-127.04 -929.33,-392.88 -1305.78,-797.57 -301.14,-329.4 -519.95,-705.81 -656.41,-1129.32 -136.45,-423.47 -218.8,-856.38 -247.01,-1298.69 0,-47.06 0,-94.12 0,-141.17 0,-47.05 0,-94.11 0,-141.16 0,-65.88 0,-129.4 0,-190.58 0,-61.17 4.7,-124.66 14.11,-190.54 28.21,-423.51 110.56,-839.92 247.02,-1249.32 136.46,-409.36 350.57,-774.04 642.29,-1094.02 376.44,-414.06 811.72,-684.63 1305.78,-811.69 494.06,-127.05 1004.62,-190.58 1531.62,-190.58l2865.63 -14.11 0 1552.82 -2597.41 0c-545.82,9.41 -983.44,91.77 -1312.84,247.02 -329.37,155.28 -503.47,543.5 -522.3,1164.61l4432.55 -14.12 0 1552.8 -4432.55 0c18.83,649.37 183.52,1044.62 494.07,1185.79 310.57,141.16 752.89,211.75 1326.95,211.75l2611.52 -14.12 0 1552.8 -2865.63 0z"/>
   <polygon class="fil1" points="12538.88,4112.78 10341.05,4112.78 10337.15,2167.73 8426.2,2162.85 8426.2,0 12538.88,0 "/>
  </g>
 </g>
</svg>
