<?xml version="1.0" encoding="UTF-8" standalone="no"?>
<!-- Created with Inkscape (http://www.inkscape.org/) -->

<svg
   width="169.0705mm"
   height="74.080803mm"
   viewBox="0 0 169.0705 74.080803"
   version="1.1"
   id="svg1"
   xmlns:inkscape="http://www.inkscape.org/namespaces/inkscape"
   xmlns:sodipodi="http://sodipodi.sourceforge.net/DTD/sodipodi-0.dtd"
   xmlns="http://www.w3.org/2000/svg"
   xmlns:svg="http://www.w3.org/2000/svg">
  <sodipodi:namedview
     id="namedview1"
     pagecolor="#ffffff"
     bordercolor="#000000"
     borderopacity="0.25"
     inkscape:showpageshadow="2"
     inkscape:pageopacity="0.0"
     inkscape:pagecheckerboard="0"
     inkscape:deskcolor="#d1d1d1"
     inkscape:document-units="mm" />
  <defs
     id="defs1" />
  <g
     inkscape:label="Camada 1"
     inkscape:groupmode="layer"
     id="layer1"
     transform="translate(11.906253,-74.347918)">
    <path
       id="path443"
       d="m -11.906253,101.14368 h 47.912899 c 6.101292,0.11973 10.886722,1.37591 14.356009,3.76862 3.469287,2.3925 5.233881,6.93872 5.293783,13.638 v 29.87841 H 43.094939 v -28.353 c 0,-4.42641 -0.942199,-6.98362 -2.826279,-7.6715 -1.884221,-0.68781 -4.7105,-0.97191 -8.479013,-0.85231 -0.598206,0.0598 -1.211298,0.0898 -1.839278,0.0898 -0.62812,0 -1.271129,0 -1.92913,0 v 36.787 H 15.280353 V 111.5519 H 0.65524552 v 36.87681 H -11.906253 Z"
       style="fill:#231f20;fill-opacity:1;fill-rule:nonzero;stroke:none;stroke-width:0.352778" />
    <path
       id="path444"
       d="m 125.31205,124.83109 -17.58611,-23.68741 h 14.5354 l 10.13901,14.26633 10.408,-14.26633 h 14.3559 l -17.49629,23.9565 17.22709,23.32853 h -14.53529 l -9.95941,-13.728 -10.0493,13.728 h -14.44562 z"
       style="fill:#231f20;fill-opacity:1;fill-rule:nonzero;stroke:none;stroke-width:0.352778" />
    <path
       id="path445"
       d="m 83.739135,148.42871 c -3.349695,0 -6.594792,-0.40383 -9.735078,-1.2113 -3.140287,-0.80761 -5.906911,-2.49731 -8.299591,-5.06952 -1.913996,-2.0936 -3.304822,-4.48621 -4.172197,-7.17801 -0.867304,-2.69159 -1.39072,-5.44329 -1.570002,-8.25457 0,-0.29912 0,-0.5981 0,-0.89722 0,-0.29909 0,-0.59821 0,-0.89729 0,-0.41872 0,-0.8225 0,-1.2113 0,-0.3888 0.02988,-0.79252 0.08968,-1.21119 0.179317,-2.6918 0.702698,-5.33862 1.570002,-7.94071 0.86741,-2.60192 2.228321,-4.91991 4.082521,-6.95371 2.39268,-2.63179 5.159304,-4.35159 8.299591,-5.15909 3.140286,-0.80762 6.385383,-1.2113 9.735078,-1.2113 l 18.214121,-0.0898 v 9.86991 H 85.443969 c -3.469322,0.0598 -6.250904,0.58321 -8.344499,1.57 -2.093525,0.98701 -3.200118,3.45451 -3.31971,7.40241 l 28.1735,-0.0898 v 9.8697 h -28.1735 c 0.119592,4.12743 1.16639,6.6397 3.140181,7.53692 1.974003,0.89729 4.785501,1.34588 8.434211,1.34588 l 16.599108,-0.0897 v 9.8697 z"
       style="fill:#231f20;fill-opacity:1;fill-rule:nonzero;stroke:none;stroke-width:0.352778" />
    <path
       id="path446"
       d="M 67.877365,100.57451 H 53.86214 L 53.837269,88.171302 41.651337,88.140117 V 74.347918 h 26.226028 z"
       style="fill:#00652e;fill-opacity:1;fill-rule:evenodd;stroke:none;stroke-width:0.352778" />
  </g>
</svg>
